<svg width="546" height="611" viewBox="0 0 546 611" fill="none" xmlns="http://www.w3.org/2000/svg">
<path d="M163.921 120.278L132.283 104.091L133.117 103.59C133.141 103.575 136.375 101.308 137.039 88.686C137.287 83.9761 136.263 78.4259 135.272 73.0679C133.487 63.418 131.644 53.4408 137.197 47.8863C145.916 39.1684 154.017 38.7342 163.494 40.7668C173.282 42.8642 184.197 52.3413 184.657 52.7431L184.796 52.8641L184.831 53.0434C185.468 56.0727 185.936 59.1349 186.235 62.2159C186.235 62.8186 186.18 63.7441 186.115 64.8144C185.966 67.3168 185.74 71.0991 186.207 72.5052C186.412 73.1176 186.938 74.5087 187.547 76.1179C189.57 81.4596 191.117 85.622 191.117 86.6232C191.117 88.1827 187.006 90.4032 185.24 91.2899C183.771 92.0254 179.959 94.3745 179.959 96.3855C179.991 97.1581 180.093 97.9263 180.264 98.6805C180.688 100.884 181.169 103.381 178.225 104.558C175.075 105.818 166.172 108.807 164.514 109.362C164.122 110.815 163.922 112.314 163.92 113.819L163.921 120.278ZM134.314 103.916L162.841 118.513V113.816C162.834 112.106 163.078 110.404 163.566 108.765L163.651 108.508L163.907 108.423C164.015 108.389 174.393 104.925 177.825 103.552C179.838 102.747 179.661 101.252 179.204 98.8814C179.019 98.0603 178.91 97.2235 178.88 96.3822C178.88 93.3474 184.156 90.6214 184.758 90.3212C187.553 88.9225 190.021 87.1891 190.038 86.62C190.038 85.7387 187.848 79.9541 186.539 76.498C185.9 74.81 185.395 73.474 185.184 72.8433C184.65 71.2395 184.86 67.6398 185.039 64.7432C185.102 63.6901 185.156 62.7797 185.156 62.2094C184.868 59.2609 184.418 56.3303 183.808 53.4311C182.501 52.3176 172.203 43.7304 163.268 41.8155C153.872 39.8034 146.362 40.2419 137.961 48.6434C132.809 53.7961 134.521 63.0583 136.333 72.8649C137.335 78.2898 138.372 83.8994 138.118 88.7411C137.587 98.8338 135.409 102.625 134.314 103.916Z" fill="white"/>
<path d="M167.911 50.3574C167.911 50.3574 176.279 54.5413 181.858 54.5413C189.526 54.5413 191.62 48.2654 188.83 44.0803C186.738 41.2917 183.362 40.9753 179.765 39.8963C172.792 37.8043 159.542 31.5284 149.082 33.6204C135.134 36.41 130.253 52.4493 131.648 61.515C133.043 70.5806 136.53 78.9486 136.53 83.1326C136.53 87.3166 136.53 92.1982 137.226 92.8959C137.923 93.5936 141.41 90.1062 143.502 86.62C145.107 83.9458 146.99 81.0406 146.292 78.9518C145.594 76.8631 140.016 73.3736 143.502 68.4919C145.529 65.6547 149.082 65.7022 150.476 68.4919C152.284 72.677 153.233 77.1827 153.266 81.7415C153.266 86.6232 151.871 92.8992 153.266 97.7808C154.66 102.663 166.515 115.214 173.489 116.609C180.463 118.003 185.344 116.609 186.042 111.728C186.74 106.848 185.344 99.1751 186.042 98.4774C186.74 97.7797 186.126 96.5896 184.646 97.0831C183.601 97.432 181.515 97.432 181.515 96.7343C181.515 95.34 181.863 94.9912 185.35 94.9912C188.836 94.9912 189.534 93.5969 188.836 92.2015C188.138 90.8061 186.047 88.7152 181.863 89.4118C177.679 90.1084 177.678 92.8992 174.195 92.2015C170.712 91.5038 166.527 83.1358 163.038 81.7415C159.548 80.3472 156.762 78.9518 156.762 73.3736C156.762 67.7953 160.946 64.3079 163.038 62.2148C164.709 60.5802 166.12 58.6989 167.222 56.6366C167.911 55.239 167.911 50.3574 167.911 50.3574Z" fill="white"/>
<path d="M243.03 591.785C241.172 591.956 238.018 592.182 234.29 592.182C228.531 592.182 221.424 591.642 215.698 589.53C208.641 586.81 202.327 582.462 197.27 576.839C190.434 577.398 187.204 575.828 185.505 575.08C185.86 570.698 185.909 565.663 185.906 563.12C192.445 563.12 200.86 563.094 206.84 562.985C206.8 566.316 206.766 572.049 206.942 575.843C205.58 575.937 203.338 576.149 199.645 576.586C204.355 581.524 210.091 585.369 216.449 587.849C224.074 590.657 234.608 590.514 240.359 590.159C235.849 588.099 228.644 586.972 223.017 584.7C218.253 582.777 208.992 575.89 208.992 575.89C208.992 575.89 209.243 575.748 208.02 575.782C207.864 572.339 207.871 567.034 207.922 562.959C210.039 562.974 212.155 562.866 214.26 562.635C215.807 561.123 217.813 552.088 217.813 552.088L215.958 552.108C217.926 539.594 228.724 469.258 225.755 451.262C222.637 432.325 195.61 318.779 194.382 313.623C195.803 310.736 195.049 303.828 195.016 303.528C194.997 303.395 194.931 303.273 194.829 303.185C194.728 303.097 194.597 303.049 194.463 303.05C193.804 303.071 128.424 304.908 110.4 297.359C110.32 297.326 110.234 297.312 110.148 297.319C110.062 297.326 109.978 297.353 109.905 297.399C109.831 297.445 109.77 297.509 109.726 297.584C109.682 297.659 109.657 297.744 109.652 297.831C109.443 301.789 109.471 305.756 109.737 309.711C109.744 309.783 109.766 309.853 109.801 309.916C109.836 309.979 109.884 310.034 109.941 310.078C109.933 310.107 109.927 310.136 109.924 310.166L109.708 552.089H105.476L107.596 565.049H112.282C112.174 567.285 111.828 573.496 111.063 578.479C110.998 578.498 110.936 578.528 110.883 578.569C105.981 582.524 108.043 603.588 108.043 603.588C108.043 603.588 112.867 608.145 135.134 609.349C159.111 610.645 174.478 611.338 174.486 601.868C174.483 601.16 174.329 600.461 174.036 599.816C173.743 599.172 173.316 598.597 172.784 598.129C170.84 598.327 167.531 598.586 163.622 598.586C157.586 598.586 150.137 597.965 144.134 595.53C136.609 592.282 129.981 587.262 124.817 580.897C117.134 581.588 113.794 579.455 112.122 578.697C112.905 573.611 113.259 567.265 113.363 565.049H135.815C135.631 567.625 135.126 575.139 135.111 579.738C133.7 579.838 131.319 580.083 127.306 580.602C132.126 586.201 138.147 590.64 144.921 593.588C152.914 596.828 163.956 596.66 169.984 596.251C165.256 593.875 157.704 592.579 151.806 589.957C146.812 587.74 137.105 579.799 137.105 579.799C137.105 579.799 137.354 579.645 136.186 579.676C136.207 575.698 136.596 569.218 136.897 565.046H140.586L145.063 552.086H144.111L163.729 397.655C169.815 424.386 179.281 466.081 179.765 468.643C180.28 471.405 178.469 523.104 177.343 552.515L174.486 552.545L175.975 563.091C175.975 563.091 179.707 563.108 184.831 563.109C184.831 565.579 184.79 570.426 184.458 574.703C184.291 574.674 184.119 574.713 183.981 574.811C179.306 578.241 181.271 596.509 181.271 596.509C181.271 596.509 185.873 600.462 207.117 601.505C229.992 602.63 244.652 603.233 244.659 595.018C244.647 594.391 244.494 593.776 244.212 593.216C243.93 592.657 243.526 592.168 243.03 591.785ZM193.989 304.151C194.196 306.371 194.395 311.055 193.456 313.084C188.984 313.848 184.439 314.441 179.896 314.89C181.005 311.489 181.546 307.929 181.497 304.352C187.821 304.306 192.419 304.194 193.989 304.151ZM180.417 304.36C180.472 307.977 179.899 311.577 178.723 314.999C174.11 315.431 169.507 315.71 164.986 315.863C165.586 312.018 165.479 308.097 164.671 304.291C170.441 304.378 175.837 304.387 180.417 304.36ZM149.253 303.833C154.09 304.049 158.935 304.185 163.564 304.265C164.407 308.085 164.517 312.031 163.888 315.893C158.583 316.041 153.411 316.01 148.481 315.828C147.969 311.817 148.231 307.745 149.253 303.833ZM134.194 302.861C138.677 303.26 143.4 303.562 148.151 303.785C147.161 307.705 146.904 311.774 147.395 315.786C142.548 315.584 137.96 315.239 133.753 314.778C133.133 310.813 133.283 306.766 134.194 302.858V302.861ZM120.783 301.186C124.492 301.827 128.667 302.344 133.109 302.761C132.219 306.662 132.06 310.693 132.64 314.651C128.539 314.197 124.464 313.536 120.43 312.668C119.83 308.851 119.95 304.956 120.783 301.183V301.186ZM110.69 298.651C113.625 299.696 116.647 300.481 119.719 300.995C118.902 304.743 118.76 308.607 119.3 312.405C116.329 311.813 113.461 310.788 110.788 309.365C110.556 305.797 110.524 302.22 110.69 298.649V298.651ZM180.819 468.457C180.207 465.217 166.33 404.258 164.118 394.546L173.595 319.947C173.604 319.876 173.599 319.805 173.58 319.736C173.562 319.667 173.53 319.603 173.486 319.547C173.443 319.491 173.389 319.444 173.327 319.409C173.266 319.373 173.198 319.351 173.127 319.342C172.985 319.325 172.843 319.365 172.73 319.453C172.617 319.54 172.543 319.668 172.523 319.809L163.084 394.114L162.921 394.152L163.022 394.599L143.014 552.097H110.784L111 310.72C117.778 314.293 135.719 317.127 156.858 317.127C169.099 317.154 181.321 316.17 193.4 314.184C195.361 322.422 221.622 432.83 224.687 451.446C227.603 469.129 216.686 540.439 214.859 552.128L178.417 552.514C178.988 537.454 181.44 471.788 180.819 468.455V468.457Z" fill="white"/>
<path d="M280.185 200.288C273.909 194.71 245.316 198.196 221.607 197.5C205.89 197.037 197.227 191.981 193.168 188.623C192.797 186.944 192.502 185.474 192.318 184.25C190.226 170.303 185.344 147.29 172.095 126.369C158.845 105.448 141.41 101.264 135.698 101.053C129.986 100.843 114.913 108.937 110.032 109.632C105.15 110.326 99.0758 108.751 97.1307 112.77C91.9002 123.579 110.032 139.618 113.519 141.014C117.006 142.409 115.611 144.5 114.913 147.29C114.216 150.08 74.4667 214.236 80.7426 227.485C87.0186 240.735 103.058 250.498 103.058 250.498C103.058 250.498 103.058 285.367 107.94 300.01C120.493 306.984 165.821 309.774 197.898 304.892C203.139 279.01 204.052 252.439 200.598 226.258C245.997 234.133 275.397 229.531 278.093 228.183C280.887 226.789 286.461 205.868 280.185 200.288Z" fill="#2F84CF"/>
<path d="M150.477 165.422C150.477 165.422 146.293 185.645 139.319 194.013C143.916 189.431 147.901 184.274 151.178 178.672L150.477 165.422Z" fill="white"/>
<path d="M139.318 194.552C139.184 194.552 139.054 194.502 138.954 194.411C138.852 194.317 138.789 194.188 138.78 194.049C138.77 193.91 138.815 193.774 138.904 193.667C145.708 185.498 149.906 165.513 149.948 165.312C149.974 165.183 150.046 165.068 150.151 164.988C150.256 164.909 150.386 164.87 150.517 164.88C150.648 164.89 150.771 164.947 150.863 165.041C150.955 165.135 151.009 165.259 151.016 165.39L151.714 178.639C151.719 178.739 151.696 178.839 151.648 178.927C148.341 184.57 144.326 189.767 139.701 194.393C139.651 194.443 139.591 194.483 139.525 194.511C139.46 194.538 139.389 194.552 139.318 194.552ZM150.138 169.267C148.941 174.064 146.548 182.516 143.159 189.031C145.949 185.76 148.448 182.251 150.626 178.543L150.138 169.267Z" fill="white"/>
<path d="M133.043 205.869C133.043 205.869 124.675 213.537 124.675 216.329C124.675 219.12 130.254 222.606 140.012 222.606C135.828 220.513 128.854 217.724 128.854 217.724C128.854 217.724 135.135 207.961 133.043 205.869Z" fill="white"/>
<path d="M140.016 223.144C130.206 223.144 124.14 219.607 124.14 216.328C124.14 213.386 131.808 206.271 132.683 205.469C132.785 205.375 132.92 205.324 133.06 205.327C133.199 205.33 133.332 205.387 133.43 205.485C135.526 207.582 131.228 214.957 129.666 217.465C131.455 218.192 136.823 220.401 140.263 222.121C140.372 222.175 140.459 222.265 140.511 222.375C140.562 222.485 140.575 222.609 140.547 222.728C140.519 222.847 140.451 222.953 140.355 223.029C140.258 223.104 140.139 223.145 140.016 223.144ZM132.903 206.734C129.734 209.707 125.214 214.565 125.214 216.328C125.214 218.453 129.543 221.437 137.449 221.978C133.477 220.154 128.716 218.247 128.659 218.224C128.585 218.195 128.518 218.149 128.464 218.091C128.409 218.033 128.369 217.963 128.344 217.887C128.32 217.811 128.313 217.731 128.323 217.652C128.334 217.573 128.362 217.497 128.405 217.43C130.671 213.905 133.321 208.626 132.903 206.734Z" fill="white"/>
<path d="M170.003 227.485C170.003 227.485 168.607 255.38 161.634 258.867C167.911 261.656 168.607 260.262 168.607 260.262C168.607 260.262 175.585 242.828 170.003 227.485Z" fill="white"/>
<path d="M167.485 261.151C165.366 260.952 163.305 260.344 161.417 259.361C161.322 259.32 161.242 259.253 161.184 259.167C161.127 259.082 161.095 258.982 161.092 258.879C161.09 258.777 161.117 258.676 161.17 258.588C161.223 258.5 161.3 258.429 161.392 258.383C168.006 255.076 169.449 227.735 169.462 227.459C169.468 227.335 169.517 227.216 169.601 227.123C169.685 227.031 169.798 226.97 169.922 226.952C170.045 226.933 170.171 226.958 170.278 227.022C170.385 227.086 170.467 227.184 170.509 227.302C176.093 242.659 169.179 260.286 169.105 260.458C168.963 260.757 168.571 261.151 167.485 261.151ZM162.766 258.765C166.821 260.451 167.949 260.061 168.147 259.96C168.664 258.604 173.987 244.044 170.351 230.394C169.807 237.321 167.958 254.491 162.763 258.765H162.766Z" fill="white"/>
<path d="M105.543 251.196C120.407 258.666 137.147 261.577 153.661 259.564V258.17C137.291 259.891 120.751 257.494 105.543 251.196Z" fill="white"/>
<path d="M143.641 260.739C130.321 260.738 117.186 257.632 105.277 251.667C105.157 251.598 105.068 251.487 105.028 251.355C104.988 251.223 105 251.081 105.061 250.957C105.123 250.834 105.229 250.739 105.358 250.691C105.487 250.644 105.63 250.647 105.757 250.701C129.733 260.975 153.348 257.671 153.583 257.636C153.66 257.625 153.738 257.63 153.813 257.652C153.887 257.673 153.956 257.711 154.015 257.761C154.074 257.812 154.121 257.875 154.153 257.946C154.185 258.016 154.202 258.093 154.202 258.171V259.565C154.203 259.697 154.155 259.825 154.069 259.925C153.982 260.024 153.861 260.088 153.73 260.105C150.384 260.531 147.014 260.742 143.641 260.739ZM124.903 257.529C134.15 259.663 143.695 260.191 153.121 259.089V258.782C143.703 259.687 134.204 259.265 124.903 257.529Z" fill="white"/>
<path d="M115.104 141.966C116.359 141.429 117.484 140.628 118.403 139.618C119.797 138.224 125.375 129.158 132.349 127.763C128.862 127.066 118.183 136.594 116.31 137.526C115.22 138.066 111.749 140.416 113.023 140.766C113.755 141.096 114.452 141.498 115.104 141.966Z" fill="white"/>
<path d="M119.35 136.688C119.142 136.956 118.948 137.209 118.768 137.444C118.275 138.092 117.849 138.641 117.634 138.856C116.918 139.604 116.098 140.244 115.198 140.756L115.052 140.659C114.815 140.501 114.563 140.335 114.305 140.182C115.074 139.538 115.907 138.972 116.789 138.494C117.688 137.958 118.545 137.355 119.352 136.689L119.35 136.688ZM131.953 127.725C128.119 127.725 118.115 136.626 116.307 137.524C115.218 138.064 111.747 140.414 113.021 140.764C113.752 141.093 114.45 141.494 115.102 141.96C116.357 141.423 117.482 140.622 118.401 139.612C119.795 138.218 125.373 129.152 132.347 127.757C132.217 127.732 132.085 127.72 131.953 127.721V127.725Z" fill="white"/>
<path d="M281.05 201.574C281.05 201.574 283.052 217.823 275.317 228.656C278.155 228.443 280.827 227.241 282.87 225.259C283.576 223.496 287.01 206.045 281.05 201.574Z" fill="white"/>
<path d="M274.267 229.197L274.879 228.342C282.403 217.803 280.534 201.8 280.513 201.639L280.359 200.38L281.373 201.142C287.887 206.028 283.857 224.263 283.371 225.46L283.263 225.632C281.123 227.726 278.307 228.99 275.32 229.196L274.267 229.197ZM281.719 202.996C282.009 207.151 282.226 219.036 276.399 228.025C278.648 227.589 280.729 226.528 282.403 224.965C283.155 222.834 285.82 208.283 281.719 202.996Z" fill="white"/>
<path d="M312.612 208.004C308.416 207.777 304.373 206.347 300.967 203.885L301.654 203.052C304.118 205.09 312.061 208.384 315.911 206.184C316.464 205.869 317.119 205.389 317.099 204.901C317.048 203.83 314.302 202.588 312.662 201.846C312.29 201.677 311.946 201.522 311.649 201.378C310.993 201.031 310.394 200.584 309.875 200.053C308.407 198.694 306.743 197.155 300.146 197.648C291.232 198.314 283.081 205.022 282.998 205.09L282.306 204.261C282.649 203.975 290.799 197.263 300.066 196.571C307.122 196.042 309.059 197.826 310.608 199.26C311.051 199.716 311.561 200.102 312.12 200.406C312.407 200.545 312.745 200.698 313.107 200.862C315.33 201.866 318.095 203.118 318.178 204.85C318.216 205.681 317.638 206.444 316.45 207.118C315.269 207.741 313.946 208.046 312.612 208.004Z" fill="white"/>
<path d="M303.378 230.316C299.896 230.316 295.313 228.905 291.256 227.657C290.638 227.467 290.038 227.282 289.465 227.111C286.348 226.314 283.138 225.942 279.921 226.003L279.89 224.923C283.222 224.853 286.549 225.24 289.775 226.076C290.351 226.249 290.954 226.433 291.573 226.625C295.453 227.813 300.258 229.311 303.619 229.233C306.777 229.167 313.663 225.169 316.255 223.664C316.822 223.34 317.227 223.101 317.402 223.016C317.814 222.816 320.543 221.167 323.774 219.065C325.449 217.978 326.997 216.934 328.26 216.041L328.976 216.849L328.815 216.965C327.609 217.829 326.048 218.88 324.369 219.968C321.442 221.872 318.429 223.724 317.875 223.99C317.711 224.071 317.335 224.294 316.795 224.606C313.888 226.294 307.08 230.248 303.643 230.32C303.554 230.315 303.467 230.316 303.378 230.316Z" fill="white"/>
<path d="M328.129 217.468L328.056 215.04L329.136 215.008L329.147 215.41C330.257 214.642 331.28 213.757 332.2 212.77C332.611 212.262 332.916 211.677 333.096 211.049C333.277 210.421 333.329 209.763 333.25 209.114C333.192 208.85 333.074 208.603 332.906 208.391C332.737 208.179 332.523 208.009 332.278 207.893C331.943 207.734 331.582 207.639 331.212 207.612C330.976 207.578 330.736 207.595 330.506 207.66C330.277 207.726 330.064 207.839 329.882 207.992C329.289 208.613 328.963 209.442 328.971 210.3L327.891 210.249C327.905 209.098 328.364 207.996 329.172 207.176C329.465 206.927 329.807 206.742 330.175 206.632C330.544 206.522 330.931 206.49 331.313 206.537C331.815 206.577 332.305 206.708 332.759 206.926C333.145 207.112 333.485 207.382 333.752 207.717C334.019 208.052 334.208 208.444 334.303 208.861C334.421 209.664 334.373 210.482 334.16 211.266C333.948 212.049 333.577 212.779 333.07 213.413C331.838 214.728 330.456 215.894 328.952 216.887L328.129 217.468Z" fill="white"/>
<path d="M332.487 207.949C332.401 207.949 332.316 207.929 332.24 207.889C332.164 207.85 332.098 207.794 332.048 207.724C332.006 207.667 331.976 207.601 331.96 207.532C331.943 207.463 331.941 207.391 331.952 207.321C331.964 207.25 331.989 207.183 332.027 207.123C332.064 207.062 332.113 207.01 332.171 206.968L345.03 197.714L332.789 184.828L310.603 200.138C310.485 200.219 310.34 200.251 310.2 200.225C310.059 200.199 309.934 200.119 309.853 200.001C309.812 199.943 309.783 199.876 309.767 199.807C309.752 199.737 309.751 199.665 309.763 199.594C309.776 199.524 309.803 199.457 309.842 199.397C309.881 199.337 309.931 199.285 309.99 199.245L332.562 183.672C332.668 183.599 332.797 183.567 332.925 183.58C333.052 183.594 333.171 183.652 333.26 183.746L346.245 197.414C346.298 197.47 346.338 197.537 346.363 197.61C346.389 197.683 346.398 197.76 346.391 197.837C346.383 197.913 346.36 197.988 346.321 198.055C346.283 198.122 346.231 198.179 346.168 198.224L332.807 207.837C332.715 207.908 332.603 207.947 332.487 207.949Z" fill="white"/>
<path d="M308.103 225.5C308.025 225.5 307.948 225.483 307.877 225.451C307.806 225.418 307.743 225.37 307.693 225.311L294.903 210.388C294.854 210.33 294.818 210.263 294.797 210.191C294.775 210.118 294.769 210.042 294.778 209.967C294.788 209.892 294.813 209.82 294.852 209.756C294.892 209.691 294.945 209.636 295.007 209.593L302.811 204.209C302.929 204.128 303.074 204.097 303.215 204.123C303.356 204.149 303.48 204.229 303.562 204.347C303.603 204.406 303.632 204.472 303.647 204.541C303.662 204.611 303.664 204.683 303.651 204.754C303.638 204.824 303.612 204.891 303.573 204.951C303.534 205.011 303.483 205.063 303.424 205.103L296.114 210.146L308.191 224.238L317.864 217.275C317.922 217.233 317.987 217.203 318.057 217.187C318.126 217.17 318.198 217.168 318.268 217.179C318.338 217.191 318.405 217.216 318.466 217.253C318.526 217.291 318.579 217.34 318.62 217.398C318.662 217.456 318.692 217.521 318.708 217.59C318.725 217.659 318.727 217.731 318.716 217.802C318.704 217.872 318.679 217.939 318.642 218C318.604 218.06 318.555 218.113 318.497 218.154L308.421 225.406C308.327 225.47 308.216 225.503 308.103 225.5Z" fill="white"/>
<path d="M327.867 217.508C327.779 217.508 327.692 217.487 327.615 217.445C327.488 217.379 327.393 217.264 327.351 217.128C327.309 216.991 327.322 216.843 327.389 216.716C328.737 214.163 328.285 210.72 327.785 210.327C327.422 210.132 327.021 210.016 326.61 209.988C326.198 209.959 325.785 210.019 325.398 210.163C323.978 210.662 323.405 212.499 323.19 213.549C323.176 213.618 323.148 213.684 323.108 213.743C323.068 213.802 323.017 213.852 322.958 213.891C322.898 213.93 322.832 213.957 322.762 213.97C322.693 213.984 322.621 213.983 322.552 213.969C322.482 213.955 322.416 213.927 322.357 213.887C322.298 213.847 322.248 213.796 322.208 213.737C322.169 213.678 322.142 213.611 322.129 213.542C322.115 213.472 322.116 213.4 322.13 213.331C322.392 212.057 323.117 209.821 325.04 209.144C325.577 208.943 326.153 208.862 326.725 208.908C327.297 208.954 327.852 209.124 328.351 209.408C329.582 210.158 329.793 214.479 328.345 217.221C328.299 217.308 328.23 217.38 328.146 217.431C328.062 217.481 327.966 217.508 327.867 217.508Z" fill="white"/>
<path d="M323.56 220.385C323.47 220.385 323.382 220.363 323.303 220.32C323.224 220.277 323.157 220.215 323.108 220.14C323.029 220.02 323.002 219.874 323.031 219.734C323.061 219.594 323.144 219.471 323.264 219.393L323.733 219.088C324.964 217.822 325.374 216.46 324.854 215.346C324.672 214.931 324.371 214.579 323.988 214.335C323.606 214.092 323.159 213.968 322.706 213.98C322.482 213.992 322.258 214.018 322.036 214.056C320.473 214.331 319.257 216.599 318.67 217.927C318.341 218.694 318.157 219.269 318.155 219.274C318.133 219.342 318.099 219.404 318.053 219.459C318.007 219.513 317.951 219.558 317.888 219.59C317.825 219.623 317.756 219.643 317.685 219.649C317.614 219.655 317.543 219.647 317.475 219.625C317.339 219.581 317.226 219.485 317.16 219.358C317.095 219.231 317.082 219.083 317.126 218.947C317.133 218.921 317.327 218.319 317.681 217.495C318.505 215.628 319.895 213.336 321.85 212.993C322.107 212.948 322.367 212.918 322.628 212.902C323.3 212.873 323.965 213.047 324.537 213.401C325.108 213.756 325.56 214.274 325.833 214.889C326.177 215.627 326.732 217.589 324.461 219.887C324.434 219.915 324.404 219.939 324.371 219.961L323.855 220.298C323.767 220.354 323.665 220.385 323.56 220.385Z" fill="white"/>
<path d="M500.346 340.954H276.783C276.639 340.954 276.502 340.897 276.401 340.796C276.3 340.694 276.243 340.557 276.243 340.414V323.134C276.243 322.99 276.3 322.853 276.401 322.752C276.502 322.65 276.639 322.594 276.783 322.594H500.346C500.489 322.594 500.626 322.65 500.728 322.752C500.829 322.853 500.886 322.99 500.886 323.134V340.414C500.886 340.557 500.829 340.694 500.728 340.796C500.626 340.897 500.489 340.954 500.346 340.954ZM277.323 339.874H499.806V323.674H277.323V339.874Z" fill="white"/>
<path d="M499.267 340.415H481.987V601.779H499.267V340.415Z" fill="#2F84CF"/>
<path d="M499.806 602.318H481.446V339.874H499.806V602.318ZM482.526 601.238H498.726V340.954H482.526V601.238Z" fill="white"/>
<path d="M296.578 339.91L295.897 340.748L481.467 491.745L482.149 490.907L296.578 339.91Z" fill="white"/>
<path d="M392.344 316.114H322.143C322 316.114 321.863 316.057 321.762 315.955C321.66 315.854 321.603 315.717 321.603 315.574C321.603 315.43 321.66 315.293 321.762 315.192C321.863 315.09 322 315.033 322.143 315.033H392.344C392.488 315.033 392.625 315.09 392.726 315.192C392.827 315.293 392.884 315.43 392.884 315.574C392.884 315.717 392.827 315.854 392.726 315.955C392.625 316.057 392.488 316.114 392.344 316.114Z" fill="white"/>
<path d="M419.345 323.679H305.943C305.799 323.679 305.66 323.621 305.558 323.519C305.456 323.417 305.398 323.278 305.398 323.134V305.853C305.398 305.709 305.456 305.57 305.558 305.468C305.66 305.366 305.799 305.308 305.943 305.308H419.345C419.489 305.308 419.628 305.366 419.73 305.468C419.832 305.57 419.89 305.709 419.89 305.853V323.134C419.89 323.278 419.832 323.417 419.73 323.519C419.628 323.621 419.489 323.679 419.345 323.679ZM306.489 322.588H418.799V306.399H306.489V322.588Z" fill="white"/>
<path d="M410.705 306.104H307.023C306.88 306.104 306.743 306.047 306.641 305.946C306.54 305.844 306.483 305.707 306.483 305.564V291.813C306.483 291.67 306.54 291.533 306.641 291.431C306.743 291.33 306.88 291.273 307.023 291.273H410.705C410.848 291.273 410.985 291.33 411.086 291.431C411.188 291.533 411.245 291.67 411.245 291.813V305.564C411.245 305.707 411.188 305.844 411.086 305.946C410.985 306.047 410.848 306.104 410.705 306.104ZM307.563 305.024H410.165V292.353H307.563V305.024Z" fill="white"/>
<path d="M478.36 323.674H454.507C454.375 323.675 454.247 323.627 454.147 323.541C454.048 323.454 453.984 323.334 453.967 323.203L446.145 262.722C446.135 262.646 446.142 262.568 446.164 262.495C446.187 262.422 446.224 262.354 446.275 262.296C446.326 262.239 446.388 262.192 446.458 262.161C446.528 262.129 446.604 262.113 446.681 262.113H483.834C483.909 262.113 483.983 262.128 484.051 262.159C484.12 262.189 484.181 262.233 484.232 262.289C484.283 262.344 484.321 262.409 484.345 262.48C484.369 262.551 484.378 262.627 484.371 262.701L478.897 323.182C478.885 323.316 478.823 323.441 478.724 323.532C478.624 323.623 478.495 323.673 478.36 323.674ZM454.981 322.594H477.866L483.244 263.193H447.3L454.981 322.594Z" fill="white"/>
<path d="M488.131 263.206L441.593 263.193C441.502 263.193 441.412 263.17 441.332 263.126C441.251 263.081 441.184 263.017 441.135 262.94C441.087 262.863 441.058 262.774 441.053 262.683C441.048 262.592 441.066 262.501 441.106 262.418L444.277 255.83L444.584 255.203C444.628 255.113 444.696 255.036 444.781 254.983C444.866 254.929 444.964 254.9 445.064 254.899L485.041 254.554C485.148 254.559 485.251 254.593 485.34 254.653C485.428 254.712 485.5 254.794 485.545 254.891L488.63 262.464C488.663 262.546 488.676 262.635 488.667 262.723C488.658 262.811 488.628 262.896 488.578 262.969C488.529 263.042 488.462 263.102 488.384 263.143C488.306 263.184 488.219 263.206 488.131 263.206ZM442.457 262.113L487.332 262.126L484.686 255.633L445.41 255.972L442.457 262.113Z" fill="white"/>
<path d="M479.323 255.633H451.495C451.404 255.633 451.316 255.61 451.236 255.567C451.157 255.524 451.09 255.461 451.041 255.385C450.992 255.31 450.963 255.223 450.956 255.133C450.949 255.043 450.965 254.953 451.002 254.871L452.457 251.631C452.5 251.536 452.569 251.456 452.656 251.399C452.744 251.343 452.845 251.313 452.949 251.313H478.107C478.217 251.313 478.324 251.346 478.415 251.409C478.505 251.471 478.574 251.56 478.613 251.662L479.829 254.903C479.86 254.984 479.87 255.072 479.859 255.159C479.849 255.246 479.817 255.329 479.767 255.4C479.718 255.472 479.651 255.531 479.574 255.571C479.497 255.612 479.411 255.633 479.323 255.633ZM452.328 254.553H478.544L477.733 252.393H453.298L452.328 254.553Z" fill="white"/>
<path d="M470.668 252.245C470.579 252.245 470.49 252.223 470.411 252.181C470.285 252.112 470.192 251.997 470.152 251.859C470.111 251.722 470.127 251.574 470.195 251.449L476.859 239.06C476.927 238.934 477.043 238.841 477.18 238.8C477.317 238.76 477.465 238.775 477.591 238.844C477.717 238.912 477.81 239.028 477.85 239.165C477.891 239.302 477.875 239.449 477.807 239.575L471.143 251.964C471.097 252.049 471.028 252.12 470.944 252.17C470.861 252.219 470.765 252.245 470.668 252.245Z" fill="white"/>
<path d="M299.305 171.632C299.054 171.634 298.808 171.556 298.604 171.409C298.399 171.263 298.247 171.055 298.168 170.816C296.084 164.822 290.284 149.899 281.468 140.806C280.604 139.913 279.57 138.862 278.399 137.674C267.029 126.099 243.368 102.01 233.677 81.8776C227.088 67.8294 226.278 51.7552 231.424 37.1164C235.357 26.5203 242.412 18.7464 251.83 14.6347C262.738 9.87404 273.952 9.65372 284.27 13.9997C296.483 19.1427 306.348 30.2647 312.046 45.3201C322.915 74.0237 313.715 117.033 307.264 140.115C302.582 156.864 301.014 165.914 300.52 170.555C300.497 170.832 300.377 171.091 300.182 171.288C299.988 171.485 299.73 171.608 299.454 171.636C299.405 171.637 299.355 171.636 299.305 171.632ZM269.038 11.9725C263.254 12.0146 257.542 13.2566 252.263 15.6197C243.12 19.6158 236.264 27.1759 232.437 37.4879C227.39 51.8509 228.185 67.6216 234.65 81.4045C244.262 101.377 267.84 125.378 279.171 136.917C280.344 138.111 281.377 139.164 282.244 140.057C291.209 149.305 297.081 164.403 299.189 170.465C299.196 170.495 299.216 170.521 299.242 170.538C299.269 170.554 299.301 170.56 299.331 170.553C299.362 170.553 299.391 170.541 299.413 170.519C299.435 170.497 299.447 170.467 299.447 170.437C299.943 165.753 301.522 156.639 306.224 139.819C312.639 116.865 321.796 74.1123 311.036 45.6971C305.444 30.9257 295.79 20.0219 283.851 14.9933C279.166 13.0034 274.128 11.9761 269.038 11.9725Z" fill="white"/>
<path d="M258.065 59.1681C257.948 59.1681 257.834 59.1302 257.741 59.0601L252.754 55.28C252.698 55.2375 252.65 55.1842 252.614 55.1232C252.578 55.0622 252.554 54.9946 252.544 54.9244C252.534 54.8542 252.538 54.7827 252.555 54.714C252.573 54.6453 252.604 54.5808 252.647 54.524C252.689 54.4673 252.742 54.4195 252.803 54.3834C252.864 54.3472 252.932 54.3235 253.002 54.3135C253.072 54.3034 253.144 54.3073 253.213 54.3249C253.281 54.3425 253.346 54.3735 253.403 54.416L258.39 58.1961C258.447 58.2386 258.495 58.2919 258.531 58.353C258.567 58.414 258.591 58.4815 258.601 58.5517C258.611 58.6219 258.607 58.6934 258.589 58.7621C258.571 58.8308 258.541 58.8954 258.498 58.9521C258.448 59.0193 258.382 59.0738 258.307 59.1113C258.232 59.1488 258.149 59.1683 258.065 59.1681Z" fill="white"/>
<path d="M272.591 53.8382C272.472 53.8383 272.357 53.7992 272.263 53.7269C272.168 53.6547 272.1 53.5533 272.07 53.4386L270.268 46.7317C270.25 46.6632 270.245 46.5918 270.254 46.5214C270.263 46.451 270.286 46.3832 270.321 46.3217C270.357 46.2602 270.404 46.2063 270.46 46.1631C270.517 46.1198 270.581 46.0881 270.649 46.0697C270.718 46.0512 270.789 46.0464 270.86 46.0556C270.93 46.0648 270.998 46.0877 271.059 46.1231C271.121 46.1585 271.175 46.2057 271.218 46.2619C271.261 46.3182 271.293 46.3824 271.311 46.4509L273.113 53.1578C273.131 53.2263 273.136 53.2978 273.127 53.3682C273.118 53.4385 273.095 53.5064 273.059 53.5678C273.024 53.6293 272.977 53.6832 272.921 53.7265C272.864 53.7697 272.8 53.8015 272.732 53.8199C272.686 53.8318 272.639 53.838 272.591 53.8382Z" fill="white"/>
<path d="M286.265 53.8382C286.199 53.8379 286.134 53.8259 286.072 53.8026C286.006 53.7772 285.945 53.739 285.893 53.6901C285.842 53.6413 285.8 53.5827 285.771 53.5178C285.743 53.4528 285.727 53.3829 285.725 53.3118C285.723 53.2408 285.735 53.1701 285.761 53.1038L288.34 46.398C288.365 46.3316 288.404 46.2709 288.452 46.2193C288.501 46.1678 288.56 46.1263 288.625 46.0974C288.69 46.0685 288.76 46.0527 288.831 46.0509C288.902 46.0491 288.972 46.0614 289.039 46.087C289.105 46.1124 289.166 46.1507 289.217 46.1996C289.269 46.2486 289.31 46.3072 289.339 46.3721C289.367 46.437 289.383 46.5069 289.385 46.5779C289.387 46.6489 289.374 46.7195 289.349 46.7857L286.77 53.4915C286.73 53.5936 286.661 53.6813 286.571 53.7432C286.481 53.8051 286.375 53.8383 286.265 53.8382Z" fill="white"/>
<path d="M279.49 103.716C279.108 103.716 278.735 103.591 278.431 103.359C278.246 103.22 278.09 103.046 277.972 102.846C277.855 102.646 277.778 102.425 277.747 102.196C277.682 101.732 277.804 101.262 278.086 100.888C278.368 100.515 278.786 100.268 279.249 100.202L288.019 98.9742C288.249 98.9416 288.483 98.9549 288.708 99.0133C288.932 99.0717 289.143 99.174 289.328 99.3144C289.514 99.4535 289.67 99.6281 289.787 99.8279C289.904 100.028 289.981 100.249 290.012 100.479C290.045 100.708 290.032 100.942 289.974 101.166C289.916 101.39 289.814 101.601 289.674 101.786C289.534 101.971 289.36 102.127 289.16 102.245C288.96 102.363 288.738 102.44 288.508 102.471L279.739 103.698C279.656 103.71 279.573 103.716 279.49 103.716ZM288.267 100.037C288.234 100.037 288.202 100.037 288.169 100.043L279.4 101.273C279.31 101.285 279.225 101.315 279.147 101.36C279.07 101.406 279.002 101.467 278.948 101.538C278.894 101.61 278.854 101.692 278.832 101.779C278.809 101.866 278.804 101.957 278.816 102.046C278.844 102.224 278.94 102.385 279.085 102.494C279.229 102.603 279.41 102.651 279.59 102.629L288.359 101.401C288.448 101.389 288.534 101.359 288.612 101.314C288.689 101.268 288.757 101.207 288.811 101.135C288.865 101.064 288.905 100.982 288.927 100.895C288.95 100.808 288.955 100.717 288.943 100.628C288.918 100.448 288.822 100.286 288.678 100.176C288.56 100.086 288.415 100.037 288.267 100.037Z" fill="white"/>
<path d="M281.608 106.251C281.215 106.252 280.832 106.123 280.519 105.884C280.328 105.741 280.168 105.562 280.047 105.356C279.926 105.151 279.847 104.923 279.815 104.686C279.771 104.444 279.775 104.195 279.829 103.955C279.882 103.714 279.983 103.487 280.126 103.286C280.269 103.085 280.45 102.915 280.66 102.786C280.87 102.656 281.103 102.57 281.347 102.533L286.639 101.792C287.116 101.726 287.599 101.851 287.984 102.141C288.369 102.431 288.623 102.861 288.691 103.337C288.735 103.58 288.731 103.829 288.677 104.069C288.624 104.31 288.523 104.537 288.38 104.738C288.237 104.939 288.055 105.109 287.845 105.238C287.636 105.368 287.402 105.454 287.158 105.491L281.866 106.233C281.781 106.245 281.695 106.251 281.608 106.251ZM286.894 102.855C286.86 102.854 286.827 102.856 286.793 102.861L281.496 103.602C281.303 103.63 281.128 103.733 281.011 103.889C280.893 104.044 280.843 104.24 280.869 104.434C280.876 104.547 280.906 104.658 280.957 104.76C281.009 104.861 281.081 104.951 281.17 105.022C281.324 105.138 281.518 105.189 281.71 105.164L287.002 104.422C287.195 104.395 287.37 104.292 287.487 104.136C287.605 103.981 287.656 103.785 287.629 103.591C287.619 103.399 287.538 103.218 287.403 103.082C287.267 102.946 287.086 102.865 286.894 102.855Z" fill="white"/>
<path d="M283.605 108.591C283.2 108.59 282.808 108.443 282.502 108.177C282.196 107.91 281.997 107.543 281.94 107.141C281.909 106.922 281.922 106.7 281.977 106.486C282.033 106.272 282.13 106.071 282.264 105.895C282.397 105.719 282.563 105.571 282.754 105.46C282.944 105.348 283.155 105.276 283.374 105.247L285.723 104.918C285.942 104.887 286.165 104.9 286.379 104.955C286.593 105.011 286.794 105.108 286.97 105.242C287.147 105.374 287.295 105.541 287.406 105.732C287.517 105.922 287.589 106.133 287.618 106.352C287.68 106.793 287.563 107.241 287.295 107.597C287.026 107.953 286.628 108.187 286.186 108.249L283.837 108.579C283.76 108.588 283.683 108.592 283.605 108.591ZM285.956 105.977C285.928 105.977 285.9 105.979 285.872 105.984L283.522 106.308C283.444 106.318 283.368 106.344 283.3 106.384C283.232 106.424 283.173 106.478 283.126 106.541C283.078 106.604 283.043 106.676 283.023 106.753C283.003 106.83 282.999 106.909 283.01 106.988C283.034 107.145 283.119 107.287 283.246 107.383C283.373 107.478 283.533 107.521 283.69 107.501L286.038 107.172C286.117 107.161 286.192 107.134 286.26 107.094C286.328 107.054 286.388 107.001 286.436 106.938C286.483 106.875 286.518 106.803 286.538 106.727C286.558 106.65 286.562 106.571 286.551 106.492C286.541 106.414 286.515 106.338 286.475 106.27C286.435 106.202 286.381 106.142 286.318 106.095C286.214 106.017 286.087 105.976 285.956 105.977Z" fill="white"/>
<path d="M280.023 101.179C279.901 101.178 279.783 101.137 279.688 101.061C279.592 100.986 279.526 100.88 279.498 100.762C279.261 99.7572 278.896 98.3284 278.648 97.6069C277.993 95.8583 276.872 94.3216 275.408 93.1627C272.429 90.8479 269.95 87.9526 268.122 84.6521C266.483 81.2555 266.736 74.594 268.616 71.692C269.764 69.9019 271.302 68.3939 273.114 67.28C274.925 66.1661 276.965 65.4751 279.081 65.2583C281.463 64.9746 283.877 65.323 286.082 66.2685C288.286 67.2139 290.203 68.7232 291.639 70.6444C293.591 73.4524 294.834 80.0102 294.015 83.1801C293.257 85.8345 292.13 88.3695 290.667 90.711L290.498 90.967C289.598 92.2082 288.833 93.542 288.216 94.9458C287.981 96.4819 287.906 98.0383 287.992 99.5898C287.996 99.7329 287.943 99.8716 287.844 99.9755C287.746 100.079 287.61 100.14 287.467 100.144C287.395 100.151 287.323 100.142 287.254 100.119C287.186 100.095 287.123 100.058 287.07 100.008C287.018 99.958 286.976 99.8976 286.949 99.8305C286.922 99.7635 286.909 99.6913 286.912 99.619C286.829 97.9582 286.918 96.2933 287.178 94.6509C287.818 93.1359 288.63 91.6998 289.599 90.3708L289.77 90.1138C291.161 87.8707 292.237 85.4472 292.969 82.9112C293.715 80.0297 292.537 73.825 290.755 71.2643C289.425 69.518 287.665 68.1457 285.647 67.281C283.629 66.4162 281.422 66.0885 279.24 66.3297C277.273 66.5153 275.375 67.1479 273.69 68.1793C272.006 69.2107 270.579 70.6135 269.52 72.2806C267.834 74.8856 267.61 81.1173 269.088 84.1867C270.842 87.3195 273.201 90.0728 276.028 92.2868C277.677 93.5735 278.935 95.2937 279.662 97.2549C280.001 98.2387 280.455 100.146 280.542 100.52C280.575 100.659 280.551 100.805 280.475 100.927C280.4 101.048 280.28 101.135 280.14 101.168C280.102 101.175 280.062 101.179 280.023 101.179Z" fill="white"/>
<path d="M282.75 100.586C282.634 100.585 282.521 100.548 282.428 100.478C282.335 100.409 282.267 100.311 282.233 100.2L277.494 84.4037C277.474 84.3358 277.467 84.2645 277.474 84.1939C277.481 84.1233 277.502 84.0548 277.536 83.9924C277.569 83.9299 277.615 83.8746 277.67 83.8297C277.725 83.7849 277.788 83.7513 277.856 83.7309C277.993 83.69 278.141 83.7052 278.267 83.7733C278.393 83.8413 278.487 83.9566 278.528 84.0938L283.267 99.8901C283.288 99.958 283.294 100.029 283.287 100.1C283.28 100.17 283.259 100.239 283.226 100.301C283.192 100.364 283.146 100.419 283.091 100.464C283.037 100.509 282.973 100.543 282.905 100.563C282.855 100.578 282.802 100.586 282.75 100.586Z" fill="white"/>
<path d="M284.713 100.326C284.582 100.326 284.456 100.278 284.358 100.192C284.259 100.106 284.196 99.9864 284.179 99.8566L282.003 83.2298C281.994 83.1594 281.999 83.088 282.018 83.0195C282.036 82.951 282.068 82.8869 282.111 82.8307C282.155 82.7745 282.209 82.7275 282.27 82.6922C282.332 82.6569 282.4 82.634 282.47 82.625C282.612 82.6066 282.755 82.6451 282.868 82.7322C282.982 82.8192 283.056 82.9477 283.075 83.0894L285.25 99.7216C285.259 99.792 285.254 99.8634 285.236 99.9319C285.217 100 285.185 100.065 285.142 100.121C285.099 100.177 285.045 100.224 284.983 100.259C284.922 100.295 284.854 100.317 284.783 100.326C284.76 100.328 284.737 100.328 284.713 100.326Z" fill="white"/>
<path d="M278.079 84.1132C277.769 84.1208 277.465 84.0235 277.218 83.8371C276.97 83.6507 276.793 83.386 276.715 83.0861C276.613 82.2948 276.712 81.4906 277.004 80.7479C275.791 80.4379 274.908 82.4597 274.899 82.4813C274.844 82.6131 274.738 82.7175 274.606 82.7716C274.473 82.8256 274.325 82.825 274.193 82.7697C274.127 82.7423 274.068 82.7022 274.018 82.6519C273.968 82.6015 273.928 82.5417 273.901 82.476C273.874 82.4103 273.861 82.3399 273.861 82.2689C273.862 82.1979 273.876 82.1277 273.903 82.0623C273.955 81.9413 275.17 79.1063 277.329 79.7176C277.378 79.7305 277.426 79.7456 277.473 79.7597C277.504 79.7089 277.537 79.6582 277.571 79.6074C277.806 79.2312 278.119 78.9096 278.488 78.6641C278.857 78.4186 279.275 78.2549 279.713 78.1839C280.721 78.0361 281.747 78.2724 282.589 78.846C283.247 78.0035 284.141 77.3772 285.158 77.0478C285.297 77.0124 285.444 77.0334 285.567 77.1063C285.69 77.1792 285.779 77.298 285.815 77.4366C285.833 77.5053 285.836 77.5768 285.827 77.6471C285.817 77.7173 285.793 77.7849 285.757 77.846C285.721 77.9071 285.673 77.9605 285.616 78.0031C285.559 78.0457 285.495 78.0767 285.426 78.0943C284.617 78.3648 283.907 78.8715 283.389 79.5491C283.849 80.0367 284.134 80.663 284.2 81.33C284.195 81.8504 284.009 82.3528 283.674 82.7509C283.339 83.1491 282.876 83.418 282.364 83.5117C282.211 83.5274 282.056 83.5115 281.909 83.465C281.761 83.4184 281.626 83.3421 281.509 83.2409C281.393 83.1396 281.298 83.0156 281.232 82.8764C281.165 82.7372 281.128 82.5858 281.122 82.4316C281.095 81.4595 281.387 80.5053 281.955 79.7154C281.341 79.3082 280.599 79.1417 279.87 79.2478C279.581 79.2975 279.306 79.4091 279.063 79.575C278.821 79.7409 278.617 79.9571 278.466 80.209L278.459 80.2187C278.856 80.514 279.162 80.9157 279.341 81.3775C279.519 81.8392 279.564 82.3421 279.469 82.828C279.451 83.1597 279.312 83.4734 279.078 83.7089C278.844 83.9445 278.531 84.0854 278.2 84.1046C278.156 84.1121 278.116 84.1132 278.079 84.1132ZM277.983 81.2188C277.795 81.7348 277.722 82.2852 277.767 82.8323C277.793 82.9012 277.842 82.9588 277.906 82.9952C277.97 83.0317 278.045 83.0447 278.118 83.0321C278.155 83.0316 278.192 83.0236 278.226 83.0086C278.26 82.9937 278.291 82.972 278.317 82.945C278.343 82.918 278.363 82.8861 278.377 82.8511C278.39 82.8162 278.396 82.779 278.395 82.7416C278.46 82.4735 278.456 82.1934 278.383 81.9272C278.311 81.6611 278.173 81.4174 277.981 81.2188H277.983ZM282.744 80.4682C282.379 81.0014 282.185 81.6331 282.187 82.2794C282.19 82.3382 282.208 82.3954 282.239 82.4457C282.393 82.4158 282.536 82.3445 282.653 82.2394C282.789 82.1385 282.902 82.0088 282.983 81.8595C283.065 81.7103 283.112 81.545 283.122 81.3754C283.081 81.0441 282.95 80.7303 282.743 80.4682H282.744Z" fill="white"/>
<path d="M321.343 100.092C321.296 100.092 321.25 100.086 321.205 100.075C321.083 100.043 320.977 99.9691 320.903 99.8667C320.83 99.7644 320.795 99.6397 320.804 99.5142C320.816 99.3447 322.003 82.423 321.668 73.9535C321.588 71.9717 321.191 68.7198 320.687 64.6006C319.067 51.3834 316.367 29.2614 320.956 18.1848C327.436 2.54183 343.321 -1.8614 355.334 0.667997C359.267 1.51811 362.988 3.15162 366.275 5.47108C369.562 7.79053 372.349 10.7484 374.468 14.1682C378.963 21.576 379.852 30.8123 377.038 40.8802C374.454 50.1349 359.607 61.4448 347.676 70.532C343.684 73.4293 339.844 76.5294 336.17 79.8202C330.402 85.7077 325.567 92.4406 321.83 99.7864C321.786 99.8781 321.717 99.9554 321.631 100.009C321.544 100.064 321.445 100.092 321.343 100.092ZM348.808 1.07948C338.474 1.07948 327.111 6.13612 321.949 18.5984C317.47 29.4126 320.152 51.3574 321.756 64.4699C322.261 68.6118 322.661 71.8842 322.743 73.9103C323.004 80.4509 322.366 91.9606 322.047 97.0497C325.646 90.4599 330.143 84.4021 335.409 79.0501C339.114 75.726 342.988 72.5959 347.016 69.6723C358.195 61.1564 373.506 49.4944 375.993 40.5886C378.724 30.8155 377.876 21.8741 373.539 14.7276C371.498 11.4327 368.814 8.58282 365.647 6.34813C362.48 4.11344 358.895 2.53975 355.106 1.72101C353.035 1.29024 350.924 1.07525 348.808 1.07948Z" fill="white"/>
<path d="M345.364 47.1897C341.928 47.1859 338.633 45.8193 336.204 43.3896C333.774 40.9599 332.407 37.6656 332.403 34.2295C332.407 30.7934 333.774 27.499 336.204 25.0693C338.633 22.6396 341.928 21.273 345.364 21.2693C348.8 21.273 352.094 22.6396 354.524 25.0693C356.953 27.499 358.32 30.7934 358.324 34.2295C358.32 37.6656 356.953 40.9599 354.524 43.3896C352.094 45.8193 348.8 47.1859 345.364 47.1897ZM345.364 22.3493C342.214 22.353 339.194 23.6059 336.967 25.833C334.74 28.0602 333.487 31.0798 333.484 34.2295C333.487 37.3791 334.74 40.3988 336.967 42.6259C339.194 44.8531 342.214 46.1059 345.364 46.1096C348.513 46.1059 351.533 44.8531 353.76 42.6259C355.987 40.3988 357.24 37.3791 357.244 34.2295C357.24 31.0798 355.987 28.0602 353.76 25.833C351.533 23.6059 348.513 22.353 345.364 22.3493Z" fill="white"/>
<path d="M336.689 35.181C336.564 35.1807 336.442 35.1368 336.346 35.0568C336.249 34.9768 336.183 34.8656 336.16 34.7425C335.852 33.0383 336.031 31.2819 336.677 29.6751C337.016 28.9633 337.496 28.3275 338.087 27.806C338.679 27.2844 339.369 26.8879 340.118 26.6402C340.187 26.6217 340.258 26.617 340.328 26.6261C340.399 26.6353 340.467 26.6582 340.528 26.6936C340.59 26.729 340.644 26.7762 340.687 26.8325C340.73 26.8887 340.762 26.9529 340.78 27.0215C340.817 27.1597 340.798 27.3069 340.726 27.4308C340.655 27.5547 340.537 27.6452 340.399 27.6824C339.799 27.8891 339.246 28.2139 338.773 28.6378C338.3 29.0617 337.918 29.5759 337.647 30.1503C337.107 31.5472 336.957 33.065 337.215 34.5405C337.228 34.6104 337.228 34.6822 337.213 34.7518C337.199 34.8214 337.17 34.8875 337.13 34.9462C337.09 35.0049 337.039 35.0551 336.979 35.0939C336.92 35.1327 336.853 35.1594 336.783 35.1723C336.752 35.1775 336.721 35.1804 336.689 35.181Z" fill="white"/>
<path d="M338.968 40.4255C338.881 40.4257 338.795 40.405 338.718 40.365C337.871 39.7802 337.237 38.9356 336.911 37.9588C336.888 37.8919 336.878 37.821 336.881 37.7502C336.885 37.6794 336.903 37.61 336.933 37.546C336.964 37.482 337.007 37.4247 337.06 37.3773C337.112 37.3299 337.174 37.2933 337.241 37.2697C337.308 37.2461 337.379 37.2359 337.449 37.2397C337.52 37.2434 337.59 37.2611 337.654 37.2917C337.718 37.3223 337.775 37.3652 337.822 37.4179C337.87 37.4707 337.906 37.5322 337.93 37.5991C338.166 38.3185 338.616 38.9491 339.218 39.4071C339.281 39.44 339.337 39.4849 339.382 39.5394C339.428 39.5938 339.462 39.6567 339.483 39.7244C339.504 39.7921 339.512 39.8633 339.506 39.9339C339.499 40.0046 339.479 40.0733 339.446 40.1361C339.401 40.2234 339.332 40.2965 339.247 40.3476C339.163 40.3986 339.066 40.4255 338.968 40.4255Z" fill="white"/>
<path d="M332.045 64.6254C331.765 64.6255 331.488 64.5674 331.232 64.4548C330.99 64.348 330.772 64.1938 330.591 64.0012C330.41 63.8086 330.27 63.5816 330.179 63.3337C330.089 63.0932 330.048 62.8371 330.059 62.5806C330.07 62.324 330.132 62.0722 330.241 61.8401L338.259 44.6678C338.289 44.6035 338.332 44.5456 338.384 44.4977C338.436 44.4497 338.498 44.4125 338.564 44.3882C338.631 44.364 338.702 44.3531 338.773 44.3562C338.844 44.3593 338.913 44.3764 338.978 44.4065C339.107 44.4672 339.207 44.5768 339.256 44.7112C339.305 44.8456 339.298 44.994 339.238 45.1236L331.219 62.2958C331.17 62.3986 331.143 62.5101 331.138 62.6236C331.134 62.7371 331.152 62.8504 331.192 62.9568C331.233 63.069 331.297 63.1717 331.379 63.2589C331.461 63.3461 331.56 63.416 331.669 63.4644C331.892 63.5624 332.144 63.571 332.372 63.4884C332.601 63.4057 332.789 63.2382 332.898 63.0205L340.931 45.8008C340.992 45.6711 341.101 45.5707 341.236 45.5217C341.37 45.4727 341.519 45.479 341.648 45.5394C341.713 45.5694 341.771 45.6117 341.819 45.664C341.866 45.7163 341.904 45.7776 341.928 45.8443C341.952 45.911 341.963 45.9819 341.96 46.0528C341.957 46.1237 341.94 46.1933 341.91 46.2576L333.876 63.4785C333.71 63.8234 333.451 64.1144 333.127 64.3174C332.802 64.5205 332.427 64.6273 332.045 64.6254Z" fill="white"/>
<path d="M310.164 174.199C310.066 174.2 309.971 174.174 309.887 174.124C309.797 174.07 309.725 173.991 309.679 173.897C309.633 173.802 309.615 173.697 309.628 173.592C309.682 173.169 315.136 131.016 328.609 106.481C341.425 83.1531 359.898 70.7426 376.817 74.081C382.697 75.2441 388.119 79.4 392.086 85.7808C398.23 95.6672 400.161 109.629 397.004 121.349C392.176 139.301 380.636 151.039 362.707 156.233C355.236 158.377 347.658 160.129 340.005 161.482C336.968 162.053 334.344 162.544 332.141 163.113C326.257 164.64 317.345 169.161 310.479 174.096C310.388 174.163 310.277 174.199 310.164 174.199ZM371.284 74.6221C356.368 74.6221 340.791 86.5433 329.557 106.999C317.46 129.008 311.871 165.385 310.872 172.5C317.676 167.776 326.163 163.549 331.874 162.068C334.113 161.489 336.753 160.993 339.81 160.42C347.429 159.073 354.973 157.329 362.41 155.194C379.951 150.113 391.246 138.631 395.967 121.066C399.049 109.618 397.168 95.9934 391.173 86.3489C387.366 80.2241 382.195 76.2432 376.613 75.1394C374.857 74.796 373.073 74.6256 371.284 74.6307V74.6221Z" fill="white"/>
<path d="M337.793 137.978C337.737 137.978 337.682 137.969 337.629 137.952C337.549 137.926 337.477 137.883 337.417 137.825C337.357 137.766 337.312 137.695 337.284 137.616L333.275 126.152C333.248 126.076 333.239 125.996 333.247 125.917C333.255 125.837 333.282 125.761 333.324 125.693C333.365 125.625 333.421 125.566 333.488 125.523C333.555 125.479 333.63 125.45 333.709 125.439L339.308 124.655L361.061 108.835C361.118 108.793 361.183 108.763 361.252 108.746C361.321 108.729 361.393 108.726 361.463 108.737C361.534 108.748 361.601 108.773 361.662 108.81C361.722 108.847 361.775 108.896 361.817 108.954C361.859 109.011 361.889 109.076 361.906 109.145C361.922 109.214 361.925 109.286 361.914 109.356C361.903 109.427 361.878 109.494 361.841 109.555C361.804 109.615 361.755 109.668 361.698 109.71L339.836 125.608C339.765 125.661 339.681 125.695 339.593 125.707L334.517 126.417L338.073 136.584L341.044 134.481C341.118 134.428 341.204 134.395 341.294 134.385L369.419 131.128C369.561 131.112 369.704 131.153 369.816 131.242C369.928 131.331 370.001 131.46 370.017 131.603C370.034 131.745 369.993 131.888 369.904 132C369.815 132.112 369.685 132.184 369.543 132.201L341.556 135.441L338.111 137.879C338.018 137.944 337.907 137.979 337.793 137.978Z" fill="white"/>
<path d="M348.535 138.609C347.816 138.669 347.094 138.558 346.426 138.285C346.015 137.997 345.67 137.313 345.972 134.266C345.987 134.124 346.058 133.994 346.168 133.904C346.279 133.813 346.42 133.77 346.562 133.782C346.633 133.789 346.702 133.809 346.764 133.843C346.827 133.876 346.882 133.921 346.928 133.976C346.973 134.031 347.007 134.094 347.027 134.162C347.048 134.23 347.055 134.301 347.049 134.372C346.793 136.971 347.073 137.42 347.085 137.438C347.783 137.785 352.552 137.363 353.108 136.855C353.248 135.752 353.248 134.637 353.108 133.535C353.103 133.464 353.112 133.393 353.135 133.326C353.157 133.258 353.193 133.196 353.239 133.143C353.286 133.089 353.343 133.045 353.406 133.013C353.47 132.982 353.539 132.963 353.61 132.958C353.751 132.952 353.89 133 353.998 133.093C354.105 133.186 354.172 133.317 354.186 133.458C354.411 136.645 354.125 137.21 354.031 137.395C353.864 137.73 353.464 137.96 352.692 138.158C351.326 138.455 349.932 138.606 348.535 138.609Z" fill="white"/>
<path d="M370.27 134.401C370.199 134.401 370.128 134.387 370.063 134.359C369.993 134.33 369.931 134.287 369.879 134.233C369.828 134.179 369.788 134.115 369.762 134.044L368.966 131.848L359.786 106.444C359.741 106.319 359.743 106.183 359.792 106.06C359.841 105.937 359.934 105.837 360.052 105.777L364.522 103.532C364.589 103.498 364.663 103.478 364.738 103.475C364.814 103.471 364.889 103.483 364.96 103.51C365.03 103.537 365.093 103.579 365.147 103.632C365.2 103.685 365.241 103.749 365.268 103.819L375.93 131.252C375.98 131.379 375.979 131.521 375.928 131.648C375.877 131.775 375.78 131.878 375.656 131.936L370.502 134.349C370.43 134.384 370.35 134.402 370.27 134.401ZM369.981 131.479L370.577 133.12L374.736 131.176L364.476 104.765L360.963 106.529L369.981 131.479Z" fill="white"/>
<path d="M372.928 105.943C372.851 105.942 372.775 105.926 372.705 105.894C372.635 105.862 372.572 105.816 372.522 105.758C372.475 105.704 372.439 105.642 372.417 105.575C372.394 105.508 372.385 105.437 372.39 105.366C372.394 105.295 372.413 105.226 372.445 105.162C372.476 105.099 372.52 105.042 372.574 104.995L381.945 96.8272C382.053 96.7332 382.194 96.6858 382.336 96.6955C382.479 96.7053 382.612 96.7713 382.706 96.879C382.753 96.9325 382.789 96.9947 382.811 97.062C382.834 97.1293 382.843 97.2004 382.838 97.2712C382.833 97.3421 382.814 97.4112 382.783 97.4747C382.751 97.5383 382.707 97.5949 382.653 97.6415L373.283 105.81C373.185 105.895 373.058 105.943 372.928 105.943Z" fill="white"/>
<path d="M380.322 111.184C380.194 111.183 380.07 111.138 379.973 111.055C379.875 110.971 379.811 110.857 379.79 110.73C379.779 110.66 379.781 110.589 379.798 110.52C379.814 110.451 379.843 110.385 379.885 110.328C379.926 110.27 379.979 110.221 380.039 110.184C380.099 110.147 380.166 110.122 380.236 110.11L388.66 108.739C388.802 108.716 388.946 108.75 389.062 108.834C389.178 108.917 389.256 109.044 389.279 109.185C389.291 109.255 389.288 109.326 389.272 109.395C389.256 109.464 389.226 109.529 389.185 109.587C389.143 109.645 389.091 109.693 389.031 109.731C388.97 109.768 388.903 109.793 388.833 109.805L380.409 111.177C380.38 111.182 380.351 111.184 380.322 111.184Z" fill="white"/>
<path d="M386.944 121.711H381.544C381.401 121.711 381.264 121.654 381.162 121.553C381.061 121.451 381.004 121.314 381.004 121.171C381.004 121.027 381.061 120.89 381.162 120.789C381.264 120.688 381.401 120.631 381.544 120.631H386.944C387.087 120.631 387.225 120.688 387.326 120.789C387.427 120.89 387.484 121.027 387.484 121.171C387.484 121.314 387.427 121.451 387.326 121.553C387.225 121.654 387.087 121.711 386.944 121.711Z" fill="white"/>
<path d="M8.10624 131.013C8.00978 131.013 7.91503 130.987 7.83188 130.938C7.76985 130.902 7.71578 130.853 7.67276 130.796C7.62973 130.738 7.59867 130.672 7.58139 130.603L0.0158787 99.8804C-0.00535014 99.7947 -0.00532308 99.705 0.0161424 99.6193C0.0376079 99.5337 0.0798713 99.4546 0.139015 99.389L15.2711 82.6487C15.3672 82.5427 15.5015 82.4791 15.6445 82.472C15.7874 82.4649 15.9274 82.5149 16.0335 82.6109C16.1397 82.7069 16.2035 82.8411 16.2108 82.9841C16.2181 83.1271 16.1683 83.2671 16.0724 83.3734L1.13255 99.8977L8.49832 129.804L35.6348 122.448L41.3394 100.956L22.6777 100.524L19.3935 110.236C19.3709 110.303 19.3351 110.365 19.2885 110.418C19.2418 110.472 19.185 110.516 19.1214 110.547C19.0578 110.579 18.9887 110.597 18.9179 110.602C18.8471 110.607 18.776 110.597 18.7088 110.575C18.6415 110.552 18.5794 110.516 18.5259 110.47C18.4725 110.423 18.4287 110.366 18.3972 110.303C18.3657 110.239 18.3471 110.17 18.3424 110.099C18.3376 110.028 18.3469 109.957 18.3697 109.89L21.7824 99.8026C21.8149 99.6909 21.8846 99.5936 21.9798 99.5269C22.075 99.4601 22.1902 99.4278 22.3062 99.4354L42.05 99.8933C42.1316 99.8953 42.2118 99.9158 42.2844 99.9532C42.357 99.9906 42.4201 100.044 42.4691 100.109C42.5183 100.175 42.552 100.25 42.5677 100.331C42.5834 100.411 42.5808 100.494 42.5598 100.573L36.5981 123.024C36.5738 123.115 36.5259 123.199 36.4591 123.266C36.3924 123.333 36.3093 123.382 36.218 123.406L8.24559 130.989C8.20032 131.003 8.15349 131.011 8.10624 131.013Z" fill="white"/>
<path d="M37.0193 394.955C34.0128 394.951 31.1306 393.755 29.0047 391.629C26.8788 389.503 25.6828 386.621 25.6791 383.614C25.6828 380.608 26.8788 377.726 29.0047 375.6C31.1306 373.474 34.0128 372.278 37.0193 372.274C40.0257 372.278 42.9079 373.474 45.0338 375.6C47.1597 377.726 48.3557 380.608 48.3594 383.614C48.3557 386.621 47.1597 389.503 45.0338 391.629C42.9079 393.755 40.0257 394.951 37.0193 394.955ZM37.0193 373.354C34.299 373.357 31.6909 374.439 29.7674 376.363C27.8439 378.286 26.762 380.894 26.7591 383.614C26.762 386.335 27.8439 388.943 29.7674 390.866C31.6909 392.79 34.299 393.872 37.0193 393.875C39.7396 393.872 42.3476 392.79 44.2711 390.866C46.1947 388.943 47.2766 386.335 47.2794 383.614C47.2766 380.894 46.1947 378.286 44.2711 376.363C42.3476 374.439 39.7396 373.357 37.0193 373.354Z" fill="white"/>
<path d="M32.9811 555.985C32.9235 555.985 32.8663 555.975 32.8116 555.957L7.87829 547.708C7.78607 547.677 7.70387 547.622 7.6402 547.549C7.57652 547.476 7.53376 547.386 7.51653 547.291C7.49921 547.195 7.50808 547.097 7.54211 547.006C7.57613 546.915 7.63414 546.834 7.70994 546.773L34.1897 525.452C34.2709 525.386 34.3692 525.346 34.4729 525.335C34.5766 525.324 34.6812 525.344 34.774 525.391C34.867 525.439 34.9443 525.512 34.9964 525.603C35.0485 525.693 35.0733 525.797 35.0677 525.901L33.5211 555.473C33.5168 555.556 33.4933 555.637 33.4525 555.71C33.4116 555.782 33.3545 555.844 33.2857 555.891C33.1959 555.952 33.0898 555.985 32.9811 555.985ZM9.15923 546.993L32.479 554.709L33.9262 527.051L9.15923 546.993Z" fill="#2F84CF"/>
<path d="M341.044 496.476C346.412 496.476 350.764 492.124 350.764 486.756C350.764 481.388 346.412 477.036 341.044 477.036C335.675 477.036 331.323 481.388 331.323 486.756C331.323 492.124 335.675 496.476 341.044 496.476Z" fill="#2F84CF"/>
<path d="M542.084 585.235C542.01 585.236 541.937 585.221 541.868 585.192L523.169 577.256C523.096 577.225 523.03 577.178 522.977 577.119C522.924 577.06 522.885 576.99 522.862 576.913C522.839 576.837 522.834 576.757 522.845 576.678C522.857 576.6 522.886 576.525 522.93 576.459L545.011 543.441C545.078 543.341 545.176 543.267 545.289 543.229C545.403 543.191 545.526 543.192 545.639 543.232C545.751 543.272 545.848 543.347 545.913 543.448C545.978 543.548 546.008 543.667 545.998 543.786L542.618 584.739C542.611 584.824 542.583 584.906 542.538 584.979C542.493 585.051 542.432 585.112 542.359 585.156C542.276 585.207 542.181 585.234 542.084 585.235ZM524.196 576.516L541.607 583.905L544.755 545.774L524.196 576.516Z" fill="white"/>
<path d="M472.489 112.458L446.008 157.728L463.891 164.95L472.489 112.458Z" fill="#2F84CF"/>
<path d="M463.89 165.488C463.821 165.488 463.752 165.475 463.688 165.449L445.805 158.227C445.733 158.198 445.669 158.155 445.616 158.099C445.562 158.043 445.522 157.976 445.496 157.903C445.471 157.83 445.462 157.752 445.47 157.675C445.478 157.597 445.502 157.523 445.542 157.456L472.021 112.186C472.085 112.077 472.185 111.994 472.303 111.951C472.421 111.908 472.551 111.908 472.669 111.951C472.788 111.994 472.888 112.077 472.952 112.186C473.015 112.295 473.039 112.422 473.018 112.547L464.42 165.036C464.407 165.115 464.376 165.191 464.33 165.258C464.284 165.324 464.223 165.379 464.152 165.419C464.072 165.464 463.982 165.488 463.89 165.488ZM446.789 157.459L463.467 164.194L471.485 115.241L446.789 157.459Z" fill="white"/>
<path d="M534.906 60.1498C540.573 60.1498 545.167 55.5562 545.167 49.8897C545.167 44.2232 540.573 39.6296 534.906 39.6296C529.24 39.6296 524.646 44.2232 524.646 49.8897C524.646 55.5562 529.24 60.1498 534.906 60.1498Z" fill="#2F84CF"/>
</svg>
