<svg width="275" height="307" viewBox="0 0 275 307" fill="none" xmlns="http://www.w3.org/2000/svg">
<path d="M82.5611 60.5237L66.6262 52.3788L67.0461 52.1266C67.0581 52.119 68.6873 50.9783 69.0218 44.6268C69.1464 42.2568 68.6307 39.4639 68.1314 36.7678C67.2327 31.9119 66.3042 26.8914 69.1012 24.0964C73.4926 19.7095 77.5729 19.4911 82.3462 20.5139C87.2756 21.5693 92.7734 26.3382 93.0051 26.5403L93.0748 26.6012L93.0927 26.6914C93.4133 28.2158 93.6494 29.7567 93.7999 31.3071C93.7999 31.6103 93.7722 32.0761 93.7395 32.6146C93.6645 33.8738 93.5502 35.7771 93.7858 36.4846C93.8891 36.7928 94.154 37.4928 94.4608 38.3025C95.4796 40.9905 96.2586 43.085 96.2586 43.5888C96.2586 44.3736 94.1883 45.4909 93.2984 45.9371C92.5586 46.3072 90.6389 47.4892 90.6389 48.5012C90.6548 48.89 90.7062 49.2765 90.7923 49.656C91.0061 50.7647 91.2482 52.0212 89.7653 52.6136C88.1791 53.2478 83.6947 54.7515 82.8597 55.0309C82.6621 55.7622 82.5616 56.5163 82.5605 57.2738L82.5611 60.5237ZM67.6489 52.2907L82.0171 59.6357V57.2721C82.0135 56.4116 82.1365 55.5552 82.3821 54.7304L82.4251 54.601L82.554 54.5586C82.6084 54.5412 87.8354 52.7983 89.5641 52.1076C90.578 51.7022 90.4888 50.95 90.2587 49.7571C90.1651 49.3439 90.1105 48.9229 90.0955 48.4995C90.0955 46.9724 92.7528 45.6007 93.0557 45.4496C94.4635 44.7458 95.7065 43.8736 95.7152 43.5872C95.7152 43.1437 94.612 40.2329 93.9528 38.4938C93.6313 37.6444 93.3767 36.9721 93.2706 36.6547C93.0014 35.8477 93.1074 34.0363 93.1972 32.5788C93.2293 32.0489 93.2565 31.5907 93.2565 31.3038C93.1113 29.8201 92.8846 28.3454 92.5776 26.8865C91.9188 26.3262 86.7322 22.0051 82.232 21.0416C77.4995 20.0291 73.7173 20.2497 69.4858 24.4773C66.8911 27.0702 67.7533 31.731 68.6661 36.6656C69.1709 39.3954 69.6931 42.2182 69.5652 44.6545C69.2976 49.7332 68.2005 51.6408 67.6489 52.2907Z" fill="white"/>
<path d="M84.5704 25.3398C84.5704 25.3398 88.7851 27.4452 91.5952 27.4452C95.4574 27.4452 96.5121 24.2871 95.107 22.1812C94.0534 20.778 92.353 20.6188 90.541 20.0758C87.0292 19.0232 80.3553 15.8651 75.087 16.9178C68.0623 18.3215 65.6036 26.3925 66.3064 30.9544C67.0092 35.5162 68.765 39.7269 68.765 41.8323C68.765 43.9377 68.765 46.3942 69.1159 46.7452C69.4667 47.0963 71.2232 45.3415 72.2769 43.5872C73.0852 42.2416 74.0333 40.7796 73.6819 39.7286C73.3305 38.6775 70.521 36.9216 72.2769 34.4651C73.2979 33.0375 75.087 33.0614 75.7893 34.4651C76.6999 36.5711 77.1777 38.8384 77.1943 41.1323C77.1943 43.5888 76.4921 46.7469 77.1943 49.2033C77.8966 51.6598 83.8677 57.9759 87.38 58.6775C90.8924 59.3792 93.3511 58.6775 93.7025 56.2216C94.054 53.7657 93.3511 49.9049 93.7025 49.5539C94.054 49.2028 93.7449 48.6039 92.9997 48.8523C92.4731 49.0278 91.4222 49.0278 91.4222 48.6767C91.4222 47.9751 91.5979 47.7996 93.3538 47.7996C95.1097 47.7996 95.4611 47.098 95.1097 46.3958C94.7583 45.6936 93.7053 44.6415 91.5979 44.992C89.4906 45.3426 89.49 46.7469 87.7357 46.3958C85.9815 46.0447 83.8736 41.834 82.1161 41.1323C80.3586 40.4307 78.9551 39.7286 78.9551 36.9216C78.9551 34.1146 81.0624 32.3598 82.1161 31.3065C82.958 30.484 83.6687 29.5373 84.2234 28.4995C84.5705 27.7963 84.5704 25.3398 84.5704 25.3398Z" fill="white"/>
<path d="M122.405 297.786C121.47 297.872 119.881 297.986 118.003 297.986C115.103 297.986 111.523 297.714 108.639 296.652C105.085 295.283 101.905 293.095 99.3577 290.265C95.9149 290.547 94.2879 289.757 93.4322 289.38C93.6112 287.175 93.6356 284.642 93.634 283.362C96.9277 283.362 101.166 283.349 104.178 283.294C104.158 284.97 104.141 287.855 104.229 289.764C103.543 289.812 102.414 289.918 100.554 290.138C102.926 292.623 105.815 294.558 109.017 295.806C112.858 297.219 118.164 297.147 121.06 296.968C118.789 295.932 115.16 295.364 112.326 294.221C109.926 293.253 105.262 289.788 105.262 289.788C105.262 289.788 105.388 289.717 104.772 289.733C104.693 288.001 104.697 285.331 104.723 283.281C105.789 283.289 106.855 283.234 107.915 283.118C108.694 282.357 109.704 277.811 109.704 277.811L108.77 277.821C109.761 271.524 115.2 236.13 113.705 227.075C112.134 217.546 98.5215 160.41 97.9031 157.815C98.6189 156.362 98.2392 152.886 98.2224 152.735C98.213 152.668 98.1797 152.607 98.1284 152.563C98.0772 152.518 98.0116 152.494 97.9439 152.495C97.6121 152.506 64.6826 153.43 55.6044 149.631C55.5643 149.614 55.5207 149.607 55.4774 149.611C55.434 149.614 55.3922 149.628 55.3553 149.651C55.3181 149.675 55.2871 149.706 55.2649 149.744C55.2427 149.782 55.2301 149.825 55.228 149.869C55.1224 151.86 55.1366 153.857 55.2704 155.847C55.2741 155.883 55.2851 155.918 55.3028 155.95C55.3205 155.981 55.3445 156.009 55.3733 156.031C55.3693 156.046 55.3664 156.061 55.3646 156.076L55.2557 277.811H53.1245L54.1923 284.333H56.5526C56.4982 285.458 56.3235 288.583 55.9384 291.091C55.9055 291.1 55.8747 291.115 55.8476 291.136C53.3791 293.126 54.4175 303.725 54.4175 303.725C54.4175 303.725 56.8468 306.019 68.0623 306.624C80.1383 307.276 87.8783 307.625 87.8822 302.86C87.8806 302.504 87.8034 302.152 87.6557 301.828C87.5079 301.503 87.2929 301.214 87.0249 300.979C86.0458 301.078 84.3791 301.209 82.4104 301.209C79.3702 301.209 75.6185 300.896 72.5951 299.671C68.8048 298.036 65.4667 295.51 62.8658 292.307C58.996 292.655 57.3141 291.582 56.472 291.2C56.8664 288.641 57.0443 285.448 57.0971 284.333H68.405C68.3125 285.629 68.0579 289.41 68.0503 291.724C67.3399 291.775 66.1405 291.898 64.1197 292.159C66.5471 294.976 69.5798 297.21 72.9917 298.693C77.017 300.324 82.5785 300.24 85.6149 300.034C83.2335 298.838 79.43 298.186 76.4594 296.866C73.9442 295.751 69.055 291.755 69.055 291.755C69.055 291.755 69.1801 291.677 68.5921 291.693C68.6024 289.692 68.7983 286.431 68.9501 284.331H70.8083L73.0629 277.81H72.5837L82.4643 200.1C85.5295 213.551 90.2974 234.532 90.5411 235.821C90.8006 237.211 89.8883 263.226 89.3215 278.026L87.8822 278.041L88.6323 283.348C88.6323 283.348 90.5117 283.356 93.0928 283.356C93.0928 284.599 93.0721 287.038 92.9046 289.191C92.8206 289.176 92.7343 289.196 92.6647 289.245C90.3099 290.971 91.2999 300.164 91.2999 300.164C91.2999 300.164 93.6177 302.153 104.317 302.678C115.839 303.243 123.222 303.547 123.226 299.413C123.22 299.098 123.143 298.788 123.001 298.507C122.859 298.225 122.655 297.979 122.405 297.786ZM97.705 153.049C97.8095 154.166 97.9096 156.523 97.4369 157.544C95.1844 157.928 92.8953 158.227 90.6069 158.453C91.1655 156.741 91.438 154.95 91.4136 153.15C94.5985 153.127 96.9147 153.071 97.705 153.049ZM90.8696 153.154C90.8973 154.974 90.6085 156.786 90.0161 158.508C87.6928 158.725 85.3745 158.865 83.0974 158.942C83.3998 157.008 83.346 155.034 82.9386 153.119C85.845 153.163 88.5627 153.167 90.8696 153.154ZM75.1735 152.889C77.6094 152.997 80.0496 153.066 82.381 153.106C82.806 155.029 82.8614 157.014 82.5442 158.958C79.8723 159.032 77.2678 159.016 74.7846 158.925C74.5265 156.906 74.6586 154.857 75.1735 152.889ZM67.5885 152.4C69.8465 152.601 72.2252 152.752 74.6181 152.865C74.1195 154.837 73.9904 156.884 74.2374 158.904C71.7961 158.802 69.4853 158.628 67.3666 158.396C67.0543 156.401 67.1296 154.365 67.5885 152.398V152.4ZM60.8341 151.557C62.7021 151.879 64.805 152.14 67.0423 152.35C66.5941 154.312 66.5139 156.341 66.8057 158.333C64.7403 158.104 62.6878 157.771 60.6562 157.335C60.3543 155.414 60.4146 153.454 60.8341 151.556V151.557ZM55.7508 150.281C57.2289 150.807 58.7507 151.202 60.2983 151.461C59.8868 153.347 59.8153 155.291 60.0873 157.202C58.591 156.904 57.1464 156.389 55.7997 155.672C55.6832 153.877 55.6669 152.077 55.7508 150.28V150.281ZM91.072 235.728C90.7635 234.097 83.7742 203.423 82.6601 198.536L87.4334 160.997C87.438 160.962 87.4355 160.926 87.4261 160.891C87.4167 160.857 87.4007 160.824 87.3788 160.796C87.357 160.768 87.3297 160.744 87.2986 160.726C87.2676 160.709 87.2334 160.697 87.1979 160.693C87.1265 160.685 87.0547 160.705 86.9979 160.749C86.9411 160.793 86.9037 160.857 86.8938 160.928L82.1395 198.318L82.0574 198.337L82.1085 198.562L72.031 277.815H55.7981L55.9069 156.354C59.3208 158.152 68.3566 159.578 79.0036 159.578C85.1689 159.592 91.325 159.097 97.4086 158.097C98.3965 162.243 111.623 217.8 113.167 227.168C114.635 236.066 109.137 271.949 108.217 277.831L89.8622 278.025C90.1499 270.447 91.3847 237.404 91.072 235.727V235.728Z" fill="white"/>
<path d="M141.119 100.785C137.958 97.9781 123.557 99.7324 111.615 99.3819C103.7 99.1493 99.3358 96.6048 97.2916 94.9152C97.105 94.0701 96.956 93.3304 96.8635 92.7147C95.8099 85.6964 93.3512 74.1163 86.6778 63.5888C80.0045 53.0614 71.2233 50.956 68.3463 50.85C65.4692 50.744 57.8777 54.8173 55.4189 55.1668C52.9602 55.5162 49.9009 54.7233 48.9213 56.7461C46.2868 62.1851 55.419 70.256 57.1754 70.9582C58.9319 71.6603 58.2291 72.7125 57.8777 74.1163C57.5263 75.52 37.5062 107.803 40.6672 114.471C43.8282 121.138 51.9066 126.051 51.9066 126.051C51.9066 126.051 51.9066 143.597 54.3653 150.965C60.6878 154.474 83.5179 155.878 99.6742 153.422C102.314 140.398 102.773 127.027 101.034 113.853C123.9 117.816 138.707 115.5 140.065 114.822C141.472 114.12 144.28 103.593 141.119 100.785Z" fill="#2F84CF"/>
<path d="M75.7899 83.2404C75.7899 83.2404 73.6825 93.4168 70.1702 97.6276C72.4852 95.3217 74.4927 92.727 76.1429 89.9077L75.7899 83.2404Z" fill="white"/>
<path d="M70.1696 97.8988C70.1018 97.8987 70.0365 97.8733 69.9864 97.8276C69.9347 97.7805 69.9032 97.7152 69.8985 97.6455C69.8937 97.5758 69.916 97.5069 69.9608 97.4532C73.3878 93.3424 75.5021 83.2861 75.5234 83.185C75.5364 83.1201 75.5728 83.0622 75.6256 83.0222C75.6783 82.9822 75.7439 82.9628 75.81 82.9677C75.876 82.9726 75.9379 83.0013 75.9841 83.0486C76.0304 83.0958 76.0578 83.1582 76.0614 83.2242L76.4127 89.8914C76.4156 89.9417 76.404 89.9919 76.3795 90.036C74.7139 92.8757 72.6917 95.491 70.3622 97.8184C70.337 97.8438 70.307 97.864 70.274 97.8778C70.2409 97.8916 70.2055 97.8987 70.1696 97.8988ZM75.6191 85.1752C75.0164 87.5893 73.811 91.8419 72.104 95.1206C73.5094 93.4744 74.7678 91.7085 75.8649 89.843L75.6191 85.1752Z" fill="white"/>
<path d="M67.0091 103.593C67.0091 103.593 62.7944 107.452 62.7944 108.857C62.7944 110.261 65.604 112.015 70.5187 112.015C68.4114 110.962 64.899 109.559 64.899 109.559C64.899 109.559 68.0628 104.646 67.0091 103.593Z" fill="white"/>
<path d="M70.521 112.286C65.5802 112.286 62.5248 110.506 62.5248 108.856C62.5248 107.376 66.3869 103.795 66.8276 103.392C66.8792 103.345 66.9472 103.319 67.0174 103.321C67.0875 103.322 67.1543 103.351 67.2039 103.4C68.2598 104.455 66.0948 108.166 65.3082 109.428C66.209 109.794 68.9131 110.906 70.6456 111.771C70.7004 111.799 70.7443 111.844 70.7703 111.899C70.7963 111.955 70.8028 112.017 70.7887 112.077C70.7745 112.137 70.7402 112.19 70.6916 112.228C70.643 112.266 70.5828 112.287 70.521 112.286ZM66.9385 104.029C65.3425 105.525 63.066 107.969 63.066 108.856C63.066 109.926 65.2462 111.427 69.228 111.7C67.2273 110.782 64.8295 109.822 64.8007 109.81C64.7634 109.796 64.7299 109.773 64.7026 109.743C64.6752 109.714 64.6546 109.679 64.6424 109.641C64.6302 109.603 64.6266 109.562 64.6319 109.523C64.6372 109.483 64.6511 109.445 64.6729 109.411C65.8141 107.637 67.149 104.981 66.9385 104.029Z" fill="white"/>
<path d="M85.6241 114.471C85.6241 114.471 84.9213 128.507 81.4089 130.262C84.5705 131.665 84.9213 130.964 84.9213 130.964C84.9213 130.964 88.4359 122.191 85.6241 114.471Z" fill="white"/>
<path d="M84.3562 131.411C83.2886 131.311 82.2506 131.005 81.2996 130.51C81.2522 130.49 81.2115 130.456 81.1826 130.413C81.1537 130.37 81.1377 130.32 81.1364 130.268C81.1352 130.216 81.1488 130.166 81.1755 130.121C81.2022 130.077 81.2409 130.042 81.2871 130.019C84.6183 128.354 85.3451 114.596 85.3516 114.458C85.3547 114.395 85.3795 114.335 85.4217 114.288C85.464 114.242 85.5211 114.211 85.5834 114.202C85.6454 114.193 85.7088 114.205 85.7628 114.237C85.8167 114.27 85.8578 114.319 85.8792 114.378C88.6915 122.106 85.2091 130.976 85.1721 131.063C85.1003 131.213 84.9029 131.411 84.3562 131.411ZM81.9791 130.21C84.0216 131.059 84.59 130.863 84.6896 130.812C84.9501 130.129 87.6308 122.803 85.7998 115.934C85.5257 119.42 84.5944 128.06 81.9779 130.21H81.9791Z" fill="white"/>
<path d="M53.1582 126.402C60.6448 130.161 69.0762 131.626 77.3934 130.613V129.911C69.1485 130.777 60.8177 129.571 53.1582 126.402Z" fill="white"/>
<path d="M72.3465 131.204C65.6382 131.203 59.0224 129.64 53.0244 126.639C52.964 126.604 52.9191 126.548 52.8989 126.482C52.8786 126.415 52.8846 126.344 52.9155 126.282C52.9465 126.22 53 126.172 53.0651 126.148C53.1302 126.124 53.2021 126.126 53.2659 126.153C65.3419 131.323 77.2356 129.66 77.3542 129.643C77.3929 129.637 77.4323 129.639 77.4699 129.65C77.5074 129.661 77.5422 129.68 77.5718 129.706C77.6014 129.731 77.6251 129.763 77.6413 129.798C77.6576 129.834 77.666 129.872 77.6659 129.912V130.613C77.6664 130.68 77.6425 130.744 77.5987 130.794C77.5549 130.844 77.4942 130.876 77.4282 130.885C75.7428 131.099 74.0455 131.206 72.3465 131.204ZM62.9093 129.589C67.5666 130.663 72.374 130.928 77.1214 130.373V130.219C72.3778 130.674 67.5938 130.462 62.9093 129.589Z" fill="white"/>
<path d="M57.9741 71.4379C58.6062 71.1675 59.1727 70.7646 59.6354 70.2564C60.3376 69.5548 63.1472 64.9929 66.6595 64.2908C64.9036 63.9402 59.5249 68.7347 58.5812 69.2037C58.0323 69.4754 56.284 70.658 56.9259 70.8341C57.2944 71.0003 57.6455 71.2025 57.9741 71.4379Z" fill="white"/>
<path d="M60.1122 68.7816C60.0077 68.9164 59.9098 69.0436 59.819 69.162C59.571 69.4881 59.3561 69.7642 59.2478 69.8723C58.8875 70.2488 58.4743 70.5708 58.0212 70.8283L57.9477 70.7794C57.8281 70.7 57.7014 70.6163 57.5714 70.5397C57.9588 70.2153 58.3779 69.9307 58.8224 69.6903C59.2751 69.4207 59.7067 69.1171 60.1133 68.7822L60.1122 68.7816ZM66.4597 64.2714C64.5286 64.2714 59.4904 68.7501 58.5798 69.2023C58.031 69.474 56.2827 70.6566 56.9245 70.8326C57.293 70.9981 57.6441 71.1996 57.9728 71.4343C58.6049 71.1639 59.1715 70.761 59.6341 70.2528C60.3363 69.5512 63.1459 64.9893 66.6583 64.2872C66.5928 64.2749 66.5263 64.2689 66.4597 64.2692V64.2714Z" fill="white"/>
<path d="M141.555 101.432C141.555 101.432 142.563 109.609 138.667 115.06C140.096 114.953 141.443 114.348 142.471 113.351C142.827 112.463 144.557 103.682 141.555 101.432Z" fill="white"/>
<path d="M138.138 115.332L138.446 114.902C142.236 109.598 141.294 101.546 141.284 101.465L141.206 100.831L141.717 101.214C144.998 103.673 142.968 112.849 142.723 113.452L142.669 113.538C141.591 114.592 140.173 115.228 138.669 115.331L138.138 115.332ZM141.892 102.148C142.038 104.238 142.147 110.219 139.212 114.742C140.345 114.523 141.393 113.989 142.236 113.202C142.615 112.13 143.957 104.808 141.892 102.148Z" fill="white"/>
<path d="M157.451 104.668C155.338 104.554 153.302 103.834 151.586 102.595L151.932 102.176C153.173 103.201 157.174 104.859 159.113 103.752C159.391 103.593 159.721 103.352 159.711 103.106C159.685 102.567 158.303 101.942 157.476 101.569C157.289 101.484 157.116 101.406 156.966 101.333C156.636 101.159 156.334 100.934 156.073 100.667C155.333 99.983 154.495 99.2085 151.172 99.4563C146.683 99.7917 142.578 103.167 142.536 103.201L142.187 102.784C142.36 102.64 146.465 99.2629 151.132 98.9145C154.686 98.6482 155.662 99.546 156.442 100.268C156.665 100.497 156.922 100.692 157.203 100.844C157.348 100.914 157.518 100.991 157.701 101.074C158.82 101.579 160.213 102.209 160.254 103.081C160.274 103.499 159.982 103.883 159.384 104.222C158.789 104.535 158.123 104.689 157.451 104.668Z" fill="white"/>
<path d="M152.8 115.895C151.047 115.895 148.738 115.185 146.695 114.557C146.384 114.461 146.081 114.368 145.793 114.282C144.223 113.881 142.606 113.694 140.986 113.725L140.97 113.182C142.649 113.146 144.324 113.341 145.949 113.761C146.239 113.848 146.543 113.941 146.855 114.037C148.809 114.635 151.229 115.389 152.922 115.35C154.512 115.317 157.981 113.305 159.286 112.548C159.572 112.385 159.776 112.265 159.864 112.222C160.071 112.121 161.446 111.291 163.073 110.234C163.917 109.686 164.696 109.161 165.333 108.712L165.693 109.119L165.612 109.177C165.005 109.612 164.218 110.14 163.373 110.688C161.899 111.646 160.381 112.578 160.102 112.712C160.019 112.753 159.83 112.865 159.558 113.022C158.094 113.871 154.665 115.861 152.934 115.897C152.889 115.894 152.845 115.895 152.8 115.895Z" fill="white"/>
<path d="M165.266 109.43L165.23 108.208L165.774 108.192L165.779 108.394C166.338 108.008 166.854 107.563 167.317 107.066C167.524 106.81 167.678 106.516 167.768 106.2C167.859 105.884 167.886 105.553 167.846 105.226C167.817 105.093 167.757 104.969 167.672 104.862C167.587 104.756 167.479 104.67 167.356 104.612C167.188 104.532 167.006 104.484 166.819 104.47C166.701 104.453 166.579 104.462 166.464 104.495C166.348 104.528 166.241 104.585 166.149 104.662C165.851 104.974 165.686 105.391 165.691 105.823L165.147 105.798C165.154 105.218 165.385 104.664 165.792 104.251C165.94 104.126 166.112 104.033 166.297 103.977C166.483 103.922 166.678 103.906 166.87 103.93C167.123 103.949 167.37 104.016 167.598 104.125C167.793 104.219 167.964 104.355 168.099 104.523C168.233 104.692 168.328 104.889 168.376 105.099C168.436 105.503 168.411 105.915 168.304 106.309C168.197 106.703 168.01 107.071 167.755 107.389C167.135 108.051 166.438 108.638 165.681 109.138L165.266 109.43Z" fill="white"/>
<path d="M167.461 104.64C167.418 104.64 167.375 104.63 167.337 104.61C167.299 104.59 167.266 104.562 167.24 104.527C167.219 104.498 167.204 104.465 167.196 104.43C167.188 104.395 167.186 104.359 167.192 104.324C167.198 104.288 167.211 104.255 167.23 104.224C167.248 104.194 167.273 104.167 167.302 104.146L173.779 99.4895L167.614 93.0054L156.439 100.71C156.38 100.75 156.307 100.766 156.236 100.753C156.165 100.74 156.102 100.7 156.061 100.641C156.041 100.611 156.026 100.578 156.018 100.543C156.011 100.508 156.01 100.471 156.016 100.436C156.023 100.401 156.036 100.367 156.056 100.337C156.075 100.306 156.101 100.28 156.13 100.26L167.499 92.4239C167.553 92.3873 167.617 92.3708 167.682 92.3776C167.746 92.3844 167.806 92.4139 167.851 92.4609L174.391 99.339C174.417 99.3671 174.438 99.4006 174.45 99.4373C174.463 99.4739 174.468 99.5128 174.464 99.5514C174.461 99.5901 174.449 99.6275 174.429 99.6611C174.41 99.6948 174.384 99.7239 174.352 99.7465L167.623 104.583C167.576 104.619 167.52 104.639 167.461 104.64Z" fill="white"/>
<path d="M155.18 113.472C155.141 113.472 155.102 113.463 155.066 113.447C155.031 113.43 154.999 113.406 154.974 113.377L148.532 105.867C148.507 105.838 148.489 105.804 148.478 105.768C148.467 105.732 148.464 105.693 148.469 105.656C148.474 105.618 148.487 105.582 148.506 105.549C148.526 105.517 148.553 105.489 148.584 105.467L152.515 102.758C152.574 102.717 152.647 102.701 152.718 102.715C152.789 102.728 152.852 102.768 152.893 102.827C152.914 102.857 152.928 102.89 152.936 102.925C152.944 102.96 152.944 102.997 152.938 103.032C152.931 103.067 152.918 103.101 152.899 103.131C152.879 103.162 152.854 103.188 152.824 103.208L149.142 105.745L155.224 112.836L160.097 109.333C160.126 109.312 160.159 109.297 160.194 109.288C160.228 109.28 160.265 109.279 160.3 109.285C160.335 109.29 160.369 109.303 160.4 109.322C160.43 109.341 160.457 109.366 160.477 109.395C160.498 109.424 160.514 109.457 160.522 109.491C160.53 109.526 160.531 109.562 160.526 109.598C160.52 109.633 160.507 109.667 160.488 109.697C160.469 109.728 160.445 109.754 160.415 109.775L155.34 113.424C155.293 113.457 155.237 113.473 155.18 113.472Z" fill="white"/>
<path d="M165.135 109.45C165.09 109.45 165.047 109.439 165.007 109.419C164.944 109.385 164.896 109.327 164.875 109.259C164.853 109.19 164.86 109.115 164.894 109.052C165.573 107.767 165.345 106.034 165.093 105.837C164.91 105.738 164.708 105.68 164.501 105.666C164.294 105.652 164.086 105.682 163.891 105.754C163.176 106.005 162.887 106.93 162.779 107.458C162.772 107.493 162.758 107.526 162.738 107.556C162.717 107.585 162.692 107.61 162.662 107.63C162.632 107.65 162.599 107.663 162.564 107.67C162.528 107.677 162.492 107.676 162.457 107.669C162.422 107.662 162.389 107.648 162.359 107.628C162.33 107.608 162.304 107.582 162.285 107.553C162.265 107.523 162.251 107.489 162.245 107.454C162.238 107.419 162.238 107.383 162.245 107.348C162.377 106.707 162.742 105.582 163.711 105.242C163.981 105.14 164.271 105.1 164.559 105.123C164.848 105.145 165.127 105.231 165.378 105.374C165.999 105.751 166.105 107.926 165.375 109.306C165.352 109.349 165.317 109.386 165.275 109.411C165.233 109.437 165.184 109.45 165.135 109.45Z" fill="white"/>
<path d="M162.965 110.898C162.92 110.898 162.876 110.887 162.836 110.865C162.796 110.844 162.762 110.812 162.737 110.775C162.698 110.714 162.684 110.641 162.699 110.57C162.714 110.5 162.756 110.438 162.816 110.398L163.052 110.245C163.673 109.608 163.879 108.923 163.617 108.362C163.526 108.153 163.374 107.976 163.181 107.854C162.988 107.731 162.763 107.669 162.535 107.675C162.422 107.681 162.309 107.694 162.198 107.713C161.41 107.851 160.798 108.993 160.502 109.661C160.336 110.047 160.244 110.336 160.243 110.339C160.232 110.373 160.215 110.404 160.192 110.432C160.169 110.459 160.14 110.482 160.108 110.498C160.077 110.514 160.042 110.524 160.006 110.527C159.971 110.53 159.935 110.526 159.901 110.515C159.832 110.493 159.775 110.445 159.742 110.381C159.709 110.317 159.703 110.243 159.724 110.174C159.728 110.161 159.826 109.858 160.004 109.444C160.419 108.504 161.119 107.351 162.104 107.178C162.234 107.155 162.364 107.14 162.496 107.132C162.834 107.118 163.169 107.205 163.457 107.384C163.745 107.562 163.973 107.823 164.11 108.132C164.283 108.503 164.563 109.491 163.419 110.647C163.405 110.661 163.39 110.674 163.374 110.684L163.114 110.854C163.07 110.882 163.018 110.898 162.965 110.898Z" fill="white"/>
<path d="M252.006 171.568H139.405C139.333 171.568 139.264 171.539 139.213 171.488C139.162 171.437 139.133 171.368 139.133 171.296V162.601C139.133 162.529 139.162 162.46 139.213 162.409C139.264 162.358 139.333 162.329 139.405 162.329H252.006C252.078 162.329 252.147 162.358 252.198 162.409C252.249 162.46 252.278 162.529 252.278 162.601V171.296C252.278 171.368 252.249 171.437 252.198 171.488C252.147 171.539 252.078 171.568 252.006 171.568ZM139.677 171.025H251.734V162.873H139.677V171.025Z" fill="white"/>
<path d="M251.462 171.297H242.759V302.815H251.462V171.297Z" fill="#2F84CF"/>
<path d="M251.734 303.086H242.486V171.025H251.734V303.086ZM243.03 302.543H251.19V171.568H243.03V302.543Z" fill="white"/>
<path d="M149.376 171.043L149.032 171.464L242.497 247.446L242.841 247.025L149.376 171.043Z" fill="white"/>
<path d="M197.609 159.068H162.252C162.18 159.068 162.11 159.04 162.059 158.989C162.008 158.938 161.98 158.869 161.98 158.797C161.98 158.725 162.008 158.655 162.059 158.604C162.11 158.554 162.18 158.525 162.252 158.525H197.609C197.681 158.525 197.751 158.554 197.802 158.604C197.853 158.655 197.881 158.725 197.881 158.797C197.881 158.869 197.853 158.938 197.802 158.989C197.751 159.04 197.681 159.068 197.609 159.068Z" fill="white"/>
<path d="M211.208 162.875H154.092C154.019 162.875 153.95 162.846 153.898 162.795C153.847 162.743 153.818 162.674 153.818 162.601V153.905C153.818 153.833 153.847 153.763 153.898 153.712C153.95 153.66 154.019 153.631 154.092 153.631H211.208C211.281 153.631 211.351 153.66 211.403 153.712C211.454 153.763 211.483 153.833 211.483 153.905V162.601C211.483 162.674 211.454 162.743 211.403 162.795C211.351 162.846 211.281 162.875 211.208 162.875ZM154.367 162.326H210.934V154.18H154.367V162.326Z" fill="white"/>
<path d="M206.857 154.032H154.636C154.564 154.032 154.495 154.003 154.444 153.952C154.393 153.901 154.364 153.832 154.364 153.76V146.84C154.364 146.768 154.393 146.699 154.444 146.648C154.495 146.597 154.564 146.569 154.636 146.569H206.857C206.929 146.569 206.998 146.597 207.049 146.648C207.1 146.699 207.129 146.768 207.129 146.84V153.76C207.129 153.832 207.1 153.901 207.049 153.952C206.998 154.003 206.929 154.032 206.857 154.032ZM154.908 153.488H206.585V147.112H154.908V153.488Z" fill="white"/>
<path d="M240.932 162.873H228.918C228.852 162.873 228.787 162.849 228.737 162.806C228.687 162.762 228.655 162.702 228.646 162.636L224.707 132.202C224.702 132.163 224.705 132.125 224.716 132.088C224.728 132.051 224.747 132.017 224.772 131.988C224.798 131.959 224.829 131.935 224.864 131.919C224.9 131.903 224.938 131.895 224.977 131.895H243.689C243.727 131.895 243.764 131.903 243.799 131.918C243.833 131.934 243.864 131.956 243.89 131.984C243.915 132.012 243.935 132.044 243.947 132.08C243.959 132.116 243.963 132.154 243.96 132.191L241.202 162.625C241.196 162.693 241.165 162.756 241.115 162.801C241.065 162.847 241 162.872 240.932 162.873ZM229.157 162.329H240.684L243.392 132.439H225.288L229.157 162.329Z" fill="white"/>
<path d="M245.853 132.445L222.414 132.439C222.368 132.439 222.323 132.427 222.282 132.405C222.242 132.383 222.208 132.35 222.183 132.311C222.159 132.273 222.145 132.228 222.142 132.182C222.14 132.136 222.149 132.09 222.169 132.049L223.766 128.734L223.92 128.418C223.942 128.373 223.977 128.334 224.02 128.307C224.062 128.28 224.112 128.266 224.162 128.265L244.297 128.091C244.351 128.094 244.403 128.111 244.448 128.141C244.492 128.171 244.528 128.212 244.551 128.261L246.105 132.072C246.122 132.113 246.128 132.158 246.124 132.202C246.119 132.247 246.104 132.289 246.079 132.326C246.054 132.363 246.02 132.393 245.981 132.414C245.942 132.434 245.898 132.445 245.853 132.445ZM222.849 131.895L245.451 131.902L244.118 128.634L224.336 128.805L222.849 131.895Z" fill="white"/>
<path d="M241.417 128.634H227.401C227.356 128.634 227.311 128.623 227.271 128.601C227.231 128.579 227.197 128.548 227.173 128.51C227.148 128.472 227.133 128.428 227.13 128.383C227.127 128.338 227.134 128.293 227.153 128.251L227.886 126.621C227.907 126.573 227.942 126.533 227.986 126.504C228.03 126.476 228.081 126.461 228.134 126.461H240.805C240.86 126.461 240.914 126.477 240.96 126.509C241.005 126.54 241.04 126.585 241.059 126.637L241.672 128.267C241.687 128.308 241.693 128.352 241.687 128.396C241.682 128.44 241.666 128.481 241.641 128.518C241.616 128.554 241.583 128.583 241.544 128.603C241.505 128.624 241.461 128.634 241.417 128.634ZM227.821 128.091H241.025L240.616 127.004H228.309L227.821 128.091Z" fill="white"/>
<path d="M237.058 126.93C237.013 126.93 236.968 126.919 236.929 126.897C236.865 126.863 236.818 126.805 236.798 126.736C236.777 126.667 236.785 126.592 236.82 126.529L240.176 120.295C240.211 120.232 240.269 120.185 240.338 120.164C240.407 120.144 240.482 120.152 240.545 120.186C240.608 120.221 240.655 120.279 240.675 120.348C240.696 120.417 240.688 120.491 240.654 120.554L237.297 126.788C237.274 126.831 237.239 126.867 237.197 126.892C237.155 126.917 237.107 126.93 237.058 126.93Z" fill="white"/>
<path d="M150.749 86.3654C150.622 86.3663 150.499 86.327 150.396 86.2532C150.293 86.1794 150.216 86.0748 150.176 85.9545C149.126 82.9383 146.205 75.4293 141.765 70.8538C141.33 70.4044 140.809 69.8756 140.219 69.2778C134.493 63.453 122.575 51.3315 117.695 41.2008C114.376 34.1318 113.968 26.0432 116.56 18.677C118.54 13.345 122.094 9.43318 126.837 7.36421C132.331 4.96862 137.979 4.85775 143.176 7.04465C149.328 9.63263 154.296 15.2292 157.166 22.8051C162.64 37.2487 158.007 58.8911 154.757 70.506C152.399 78.9341 151.61 83.4877 151.361 85.8236C151.349 85.9625 151.289 86.0928 151.191 86.1921C151.093 86.2913 150.963 86.3532 150.824 86.367C150.799 86.3678 150.774 86.3673 150.749 86.3654ZM135.504 6.02457C132.591 6.04577 129.714 6.67071 127.056 7.85985C122.45 9.87067 118.997 13.6749 117.07 18.8639C114.528 26.0914 114.928 34.0272 118.185 40.9628C123.026 51.0131 134.901 63.0905 140.608 68.8968C141.199 69.4974 141.719 70.0272 142.156 70.4767C146.671 75.1304 149.628 82.7274 150.69 85.7779C150.694 85.7932 150.704 85.8063 150.717 85.8147C150.731 85.823 150.747 85.8258 150.762 85.8225C150.778 85.8223 150.792 85.8161 150.803 85.8051C150.814 85.7941 150.82 85.7792 150.82 85.7638C151.07 83.4068 151.865 78.821 154.234 70.3571C157.465 58.8063 162.076 37.2933 156.657 22.9948C153.841 15.5618 148.978 10.075 142.965 7.54464C140.606 6.54332 138.068 6.02639 135.504 6.02457Z" fill="white"/>
<path d="M129.978 29.7734C129.919 29.7734 129.862 29.7543 129.815 29.7191L127.303 27.8169C127.275 27.7955 127.25 27.7687 127.232 27.738C127.214 27.7073 127.202 27.6733 127.197 27.638C127.192 27.6027 127.194 27.5667 127.203 27.5321C127.212 27.4975 127.227 27.4651 127.249 27.4365C127.27 27.408 127.297 27.3839 127.328 27.3657C127.358 27.3476 127.393 27.3356 127.428 27.3306C127.463 27.3255 127.499 27.3275 127.534 27.3363C127.568 27.3452 127.601 27.3608 127.63 27.3822L130.142 29.2843C130.17 29.3057 130.194 29.3325 130.212 29.3632C130.231 29.3939 130.243 29.4279 130.248 29.4632C130.253 29.4986 130.251 29.5345 130.242 29.5691C130.233 29.6037 130.217 29.6362 130.196 29.6647C130.171 29.6985 130.138 29.726 130.1 29.7448C130.062 29.7637 130.02 29.7735 129.978 29.7734Z" fill="white"/>
<path d="M137.294 27.0914C137.234 27.0914 137.176 27.0717 137.129 27.0354C137.081 26.999 137.047 26.9481 137.031 26.8903L136.124 23.5154C136.115 23.4809 136.112 23.445 136.117 23.4096C136.122 23.3742 136.133 23.34 136.151 23.3091C136.169 23.2782 136.193 23.251 136.221 23.2293C136.249 23.2075 136.282 23.1915 136.316 23.1823C136.351 23.173 136.387 23.1706 136.422 23.1752C136.458 23.1798 136.492 23.1913 136.523 23.2092C136.554 23.227 136.581 23.2507 136.603 23.279C136.624 23.3073 136.64 23.3396 136.65 23.3741L137.557 26.749C137.566 26.7835 137.569 26.8195 137.564 26.8549C137.559 26.8903 137.548 26.9244 137.53 26.9554C137.512 26.9863 137.488 27.0134 137.46 27.0352C137.432 27.0569 137.399 27.0729 137.365 27.0822C137.342 27.0882 137.318 27.0913 137.294 27.0914Z" fill="white"/>
<path d="M144.181 27.0914C144.148 27.0913 144.115 27.0852 144.084 27.0735C144.05 27.0607 144.02 27.0415 143.994 27.0169C143.968 26.9923 143.947 26.9628 143.932 26.9301C143.918 26.8975 143.91 26.8623 143.909 26.8265C143.908 26.7908 143.914 26.7552 143.927 26.7219L145.226 23.3475C145.239 23.3141 145.258 23.2835 145.283 23.2576C145.307 23.2316 145.337 23.2108 145.37 23.1962C145.402 23.1817 145.438 23.1738 145.473 23.1728C145.509 23.1719 145.545 23.1781 145.578 23.191C145.611 23.2038 145.642 23.2231 145.668 23.2477C145.694 23.2723 145.715 23.3018 145.729 23.3344C145.744 23.3671 145.752 23.4023 145.752 23.438C145.753 23.4737 145.747 23.5093 145.734 23.5426L144.435 26.917C144.415 26.9683 144.381 27.0125 144.335 27.0436C144.29 27.0748 144.236 27.0914 144.181 27.0914Z" fill="white"/>
<path d="M140.769 52.1897C140.576 52.1899 140.389 52.1269 140.235 52.0103C140.142 51.9403 140.064 51.8526 140.004 51.7521C139.945 51.6516 139.907 51.5405 139.891 51.425C139.858 51.1918 139.92 50.9551 140.062 50.767C140.203 50.579 140.414 50.4548 140.648 50.4218L145.065 49.8039C145.18 49.7874 145.298 49.7941 145.411 49.8235C145.524 49.8529 145.631 49.9044 145.724 49.9751C145.817 50.045 145.896 50.1329 145.955 50.2334C146.014 50.334 146.052 50.4453 146.068 50.5609C146.085 50.6763 146.078 50.7939 146.049 50.9067C146.02 51.0196 145.968 51.1256 145.898 51.2185C145.828 51.3118 145.74 51.3904 145.639 51.4496C145.538 51.5089 145.427 51.5476 145.311 51.5636L140.894 52.181C140.853 52.1868 140.811 52.1897 140.769 52.1897ZM145.189 50.3386C145.173 50.3386 145.156 50.3386 145.14 50.3419L140.723 50.9603C140.678 50.9666 140.635 50.9817 140.596 51.0046C140.557 51.0276 140.523 51.058 140.496 51.0941C140.468 51.1302 140.448 51.1714 140.437 51.2152C140.426 51.259 140.423 51.3046 140.429 51.3495C140.443 51.4394 140.492 51.5203 140.565 51.5751C140.637 51.6298 140.729 51.6542 140.819 51.6429L145.236 51.025C145.281 51.0189 145.324 51.004 145.363 50.981C145.402 50.9581 145.436 50.9276 145.463 50.8913C145.491 50.8552 145.511 50.8141 145.522 50.7702C145.533 50.7264 145.536 50.6807 145.53 50.6359C145.517 50.5456 145.469 50.4639 145.396 50.4087C145.337 50.3634 145.264 50.3388 145.189 50.3386Z" fill="white"/>
<path d="M141.836 53.4657C141.637 53.4659 141.445 53.401 141.287 53.2809C141.191 53.2091 141.11 53.1188 141.049 53.0153C140.988 52.9118 140.949 52.7972 140.933 52.6782C140.91 52.5563 140.913 52.4311 140.939 52.3101C140.966 52.189 141.017 52.0746 141.089 51.9736C141.161 51.8725 141.253 51.7869 141.358 51.7218C141.464 51.6567 141.581 51.6135 141.704 51.5946L144.369 51.2217C144.61 51.1884 144.853 51.2515 145.047 51.3973C145.241 51.5431 145.369 51.7596 145.403 51.9994C145.425 52.1214 145.423 52.2467 145.396 52.3677C145.369 52.4888 145.318 52.6032 145.246 52.7043C145.174 52.8053 145.083 52.8909 144.977 52.956C144.871 53.0211 144.754 53.0643 144.631 53.0831L141.966 53.4565C141.923 53.4626 141.879 53.4657 141.836 53.4657ZM144.498 51.7565C144.481 51.7562 144.464 51.7573 144.447 51.7598L141.779 52.1326C141.682 52.1465 141.594 52.1983 141.535 52.2767C141.476 52.3552 141.45 52.4538 141.464 52.5511C141.467 52.6082 141.482 52.6641 141.508 52.7151C141.534 52.7661 141.57 52.8111 141.615 52.8472C141.693 52.9056 141.79 52.9311 141.887 52.9184L144.552 52.5451C144.65 52.5315 144.737 52.4798 144.797 52.4014C144.856 52.3231 144.882 52.2244 144.868 52.1272C144.863 52.0306 144.822 51.9393 144.754 51.8709C144.686 51.8025 144.594 51.7617 144.498 51.7565Z" fill="white"/>
<path d="M142.841 54.6428C142.637 54.6424 142.44 54.5684 142.286 54.4344C142.132 54.3005 142.031 54.1155 142.003 53.9135C141.987 53.8034 141.994 53.6913 142.022 53.5837C142.05 53.476 142.099 53.375 142.166 53.2864C142.233 53.1978 142.317 53.1233 142.413 53.0673C142.509 53.0114 142.615 52.975 142.725 52.9603L143.908 52.7945C144.018 52.7791 144.131 52.7856 144.238 52.8136C144.346 52.8415 144.448 52.8905 144.536 52.9576C144.625 53.0244 144.7 53.1083 144.756 53.2042C144.812 53.3001 144.848 53.4062 144.863 53.5163C144.894 53.7384 144.835 53.9637 144.7 54.1427C144.565 54.3217 144.364 54.4399 144.141 54.4711L142.958 54.6369C142.92 54.6415 142.88 54.6435 142.841 54.6428ZM144.026 53.3277C144.011 53.3277 143.997 53.3288 143.983 53.3309L142.8 53.494C142.76 53.4994 142.722 53.5125 142.688 53.5327C142.654 53.5528 142.624 53.5796 142.6 53.6114C142.576 53.6431 142.558 53.6794 142.548 53.718C142.538 53.7566 142.536 53.7969 142.542 53.8363C142.554 53.9155 142.597 53.9867 142.661 54.0349C142.725 54.0831 142.805 54.1045 142.884 54.0945L144.067 53.9287C144.106 53.9233 144.144 53.9101 144.179 53.8899C144.213 53.8698 144.243 53.8431 144.267 53.8113C144.291 53.7796 144.309 53.7434 144.319 53.7049C144.329 53.6664 144.331 53.6263 144.325 53.5869C144.32 53.5474 144.307 53.5094 144.287 53.4751C144.267 53.4408 144.24 53.4108 144.208 53.3869C144.155 53.3478 144.091 53.327 144.026 53.3277Z" fill="white"/>
<path d="M141.037 50.9131C140.976 50.913 140.916 50.8922 140.868 50.8541C140.821 50.816 140.787 50.7629 140.773 50.7033C140.654 50.1979 140.47 49.4789 140.345 49.1158C140.015 48.2359 139.45 47.4627 138.713 46.8795C137.212 45.7147 135.964 44.2578 135.043 42.597C134.218 40.8878 134.345 37.5357 135.292 36.0754C135.87 35.1747 136.645 34.4158 137.557 33.8553C138.47 33.2948 139.497 32.9471 140.563 32.838C141.763 32.6952 142.979 32.8705 144.089 33.3463C145.199 33.8221 146.165 34.5815 146.888 35.5482C147.871 36.9613 148.497 40.2612 148.085 41.8562C147.703 43.192 147.135 44.4676 146.399 45.6458L146.313 45.7746C145.86 46.3992 145.474 47.0704 145.164 47.7767C145.045 48.5497 145.008 49.3329 145.051 50.1136C145.053 50.1856 145.026 50.2554 144.977 50.3077C144.927 50.36 144.859 50.3904 144.787 50.3924C144.75 50.396 144.714 50.3917 144.679 50.3798C144.645 50.368 144.613 50.349 144.587 50.3239C144.56 50.2989 144.54 50.2685 144.526 50.2347C144.512 50.201 144.506 50.1647 144.507 50.1283C144.465 49.2926 144.51 48.4548 144.641 47.6284C144.963 46.866 145.373 46.1433 145.861 45.4746L145.947 45.3453C146.647 44.2165 147.189 42.997 147.558 41.7209C147.934 40.2709 147.34 37.1487 146.443 35.8602C145.773 34.9814 144.886 34.2909 143.87 33.8558C142.854 33.4207 141.742 33.2558 140.643 33.3771C139.652 33.4705 138.696 33.7888 137.848 34.3078C136.999 34.8268 136.281 35.5327 135.747 36.3716C134.898 37.6824 134.785 40.8182 135.53 42.3627C136.413 43.9392 137.601 45.3246 139.025 46.4387C139.856 47.0862 140.489 47.9518 140.856 48.9387C141.026 49.4338 141.255 50.3935 141.299 50.5816C141.315 50.6516 141.303 50.7252 141.265 50.7864C141.227 50.8475 141.167 50.8911 141.097 50.9076C141.077 50.9114 141.057 50.9132 141.037 50.9131Z" fill="white"/>
<path d="M142.411 50.6147C142.352 50.6146 142.295 50.5956 142.248 50.5607C142.202 50.5257 142.167 50.4767 142.151 50.4207L139.764 42.472C139.753 42.4378 139.75 42.4019 139.753 42.3664C139.757 42.3309 139.768 42.2964 139.785 42.265C139.801 42.2335 139.824 42.2057 139.852 42.1832C139.88 42.1606 139.912 42.1437 139.946 42.1334C140.015 42.1128 140.089 42.1205 140.153 42.1547C140.216 42.189 140.264 42.247 140.284 42.316L142.671 50.2647C142.681 50.2989 142.685 50.3348 142.681 50.3703C142.678 50.4058 142.667 50.4403 142.65 50.4717C142.633 50.5032 142.61 50.531 142.583 50.5536C142.555 50.5761 142.523 50.593 142.489 50.6033C142.463 50.6108 142.437 50.6147 142.411 50.6147Z" fill="white"/>
<path d="M143.4 50.4843C143.334 50.4842 143.27 50.4601 143.22 50.4167C143.171 50.3732 143.139 50.3132 143.13 50.2479L142.035 41.8812C142.03 41.8458 142.033 41.8099 142.042 41.7754C142.051 41.741 142.067 41.7087 142.089 41.6804C142.111 41.6522 142.138 41.6285 142.169 41.6107C142.2 41.5929 142.234 41.5815 142.27 41.5769C142.341 41.5676 142.413 41.587 142.47 41.6308C142.527 41.6746 142.565 41.7393 142.574 41.8106L143.67 50.1799C143.674 50.2153 143.672 50.2513 143.663 50.2857C143.653 50.3202 143.637 50.3525 143.615 50.3807C143.594 50.409 143.567 50.4327 143.536 50.4505C143.505 50.4682 143.47 50.4797 143.435 50.4843C143.423 50.4851 143.411 50.4851 143.4 50.4843Z" fill="white"/>
<path d="M140.058 42.3258C139.902 42.3296 139.749 42.2807 139.624 42.1868C139.5 42.093 139.41 41.9599 139.371 41.8089C139.32 41.4107 139.37 41.0061 139.517 40.6323C138.906 40.4764 138.461 41.4937 138.457 41.5046C138.429 41.5709 138.375 41.6235 138.309 41.6507C138.242 41.6779 138.167 41.6775 138.101 41.6497C138.068 41.6359 138.038 41.6158 138.013 41.5904C137.987 41.5651 137.968 41.535 137.954 41.5019C137.94 41.4689 137.934 41.4335 137.934 41.3977C137.934 41.362 137.941 41.3267 137.955 41.2937C137.981 41.2329 138.593 39.8063 139.68 40.1139C139.705 40.1204 139.729 40.128 139.753 40.1351C139.769 40.1095 139.785 40.084 139.802 40.0585C139.921 39.8691 140.078 39.7073 140.264 39.5838C140.45 39.4602 140.66 39.3779 140.881 39.3422C141.389 39.2678 141.906 39.3867 142.33 39.6753C142.661 39.2514 143.112 38.9362 143.624 38.7704C143.693 38.7526 143.767 38.7632 143.829 38.7999C143.891 38.8366 143.936 38.8964 143.954 38.9661C143.963 39.0007 143.965 39.0367 143.96 39.072C143.955 39.1074 143.943 39.1414 143.925 39.1721C143.907 39.2029 143.883 39.2297 143.854 39.2512C143.826 39.2726 143.793 39.2882 143.759 39.2971C143.351 39.4332 142.994 39.6881 142.733 40.0291C142.964 40.2745 143.108 40.5896 143.141 40.9253C143.139 41.1871 143.045 41.4399 142.876 41.6403C142.708 41.8406 142.474 41.976 142.216 42.0231C142.139 42.031 142.061 42.023 141.987 41.9996C141.913 41.9761 141.844 41.9378 141.786 41.8868C141.727 41.8359 141.68 41.7734 141.646 41.7034C141.612 41.6334 141.594 41.5572 141.591 41.4796C141.577 40.9904 141.724 40.5103 142.01 40.1128C141.701 39.9079 141.327 39.8241 140.96 39.8775C140.815 39.9025 140.676 39.9587 140.554 40.0421C140.432 40.1256 140.329 40.2344 140.253 40.3612L140.249 40.3661C140.45 40.5147 140.604 40.7168 140.694 40.9492C140.784 41.1815 140.806 41.4346 140.758 41.6791C140.749 41.846 140.679 42.0038 140.561 42.1223C140.443 42.2409 140.286 42.3118 140.119 42.3214C140.097 42.3252 140.077 42.3258 140.058 42.3258ZM140.01 40.8693C139.915 41.129 139.878 41.4059 139.901 41.6812C139.914 41.7159 139.939 41.7449 139.971 41.7632C140.003 41.7815 140.041 41.7881 140.078 41.7818C140.096 41.7815 140.115 41.7775 140.132 41.7699C140.149 41.7624 140.165 41.7515 140.178 41.7379C140.191 41.7243 140.201 41.7083 140.208 41.6907C140.215 41.6731 140.218 41.6544 140.217 41.6356C140.25 41.5007 140.248 41.3597 140.211 41.2258C140.175 41.0919 140.105 40.9693 140.009 40.8693H140.01ZM142.408 40.4916C142.224 40.7599 142.126 41.0778 142.127 41.403C142.129 41.4326 142.138 41.4614 142.153 41.4867C142.231 41.4716 142.303 41.4357 142.362 41.3829C142.431 41.3321 142.487 41.2668 142.528 41.1917C142.569 41.1166 142.593 41.0334 142.598 40.9481C142.577 40.7814 142.511 40.6235 142.407 40.4916H142.408Z" fill="white"/>
<path d="M161.849 50.3663C161.825 50.3664 161.802 50.3634 161.779 50.3576C161.718 50.3415 161.664 50.3044 161.627 50.2529C161.59 50.2015 161.573 50.1387 161.577 50.0756C161.583 49.9903 162.181 41.4753 162.012 37.2134C161.972 36.2162 161.772 34.5798 161.518 32.507C160.702 25.8561 159.343 14.7243 161.654 9.15058C164.918 1.27905 172.918 -0.936656 178.969 0.336136C180.949 0.763911 182.823 1.5859 184.479 2.75305C186.135 3.9202 187.538 5.40859 188.606 7.12943C190.87 10.8571 191.317 15.5048 189.9 20.5709C188.599 25.2279 181.121 30.919 175.112 35.4917C173.101 36.9496 171.167 38.5096 169.316 40.1655C166.411 43.1281 163.976 46.5161 162.094 50.2125C162.072 50.2587 162.037 50.2976 161.993 50.3248C161.95 50.352 161.9 50.3664 161.849 50.3663ZM175.682 0.543196C170.477 0.543196 164.754 3.08769 162.154 9.35872C159.898 14.8004 161.249 25.8431 162.056 32.4413C162.311 34.5255 162.512 36.1721 162.554 37.1917C162.685 40.4829 162.364 46.2746 162.203 48.8354C164.016 45.5194 166.281 42.4712 168.933 39.778C170.799 38.1053 172.75 36.5303 174.779 35.0591C180.41 30.7739 188.121 24.9056 189.374 20.4242C190.749 15.5064 190.322 11.0071 188.138 7.41095C187.11 5.75294 185.758 4.31888 184.163 3.19438C182.568 2.06988 180.762 1.278 178.854 0.866014C177.811 0.64925 176.747 0.541067 175.682 0.543196Z" fill="white"/>
<path d="M173.947 23.7458C172.216 23.744 170.557 23.0563 169.333 21.8337C168.11 20.611 167.421 18.9533 167.419 17.2243C167.421 15.4952 168.11 13.8375 169.333 12.6149C170.557 11.3923 172.216 10.7046 173.947 10.7027C175.678 10.7046 177.337 11.3923 178.561 12.6149C179.784 13.8375 180.473 15.4952 180.475 17.2243C180.473 18.9533 179.784 20.611 178.561 21.8337C177.337 23.0563 175.678 23.744 173.947 23.7458ZM173.947 11.2462C172.361 11.248 170.84 11.8785 169.718 12.9992C168.596 14.1199 167.965 15.6394 167.963 17.2243C167.965 18.8092 168.596 20.3287 169.718 21.4494C170.84 22.5701 172.361 23.2005 173.947 23.2024C175.533 23.2005 177.054 22.5701 178.176 21.4494C179.298 20.3287 179.929 18.8092 179.931 17.2243C179.929 15.6394 179.298 14.1199 178.176 12.9992C177.054 11.8785 175.533 11.248 173.947 11.2462Z" fill="white"/>
<path d="M169.578 17.7031C169.515 17.7029 169.454 17.6808 169.405 17.6406C169.356 17.6003 169.323 17.5444 169.311 17.4824C169.156 16.6249 169.247 15.7411 169.572 14.9325C169.743 14.5743 169.984 14.2544 170.282 13.992C170.58 13.7295 170.928 13.53 171.305 13.4054C171.34 13.3961 171.376 13.3937 171.411 13.3983C171.446 13.4029 171.481 13.4144 171.512 13.4322C171.543 13.4501 171.57 13.4738 171.592 13.5021C171.613 13.5304 171.629 13.5627 171.639 13.5972C171.657 13.6667 171.647 13.7408 171.611 13.8032C171.575 13.8655 171.516 13.9111 171.446 13.9298C171.144 14.0338 170.866 14.1973 170.628 14.4106C170.39 14.6238 170.197 14.8826 170.06 15.1716C169.788 15.8746 169.713 16.6383 169.843 17.3808C169.85 17.416 169.849 17.4521 169.842 17.4871C169.835 17.5221 169.82 17.5554 169.8 17.5849C169.78 17.6145 169.754 17.6397 169.724 17.6593C169.694 17.6788 169.661 17.6922 169.625 17.6987C169.61 17.7013 169.594 17.7028 169.578 17.7031Z" fill="white"/>
<path d="M170.726 20.3421C170.682 20.3422 170.639 20.3318 170.6 20.3117C170.173 20.0174 169.854 19.5924 169.69 19.1009C169.678 19.0672 169.673 19.0315 169.675 18.9959C169.677 18.9603 169.686 18.9254 169.701 18.8932C169.716 18.861 169.738 18.8321 169.765 18.8083C169.791 18.7844 169.822 18.766 169.856 18.7541C169.889 18.7422 169.925 18.7371 169.961 18.739C169.996 18.7409 170.031 18.7498 170.064 18.7652C170.096 18.7806 170.125 18.8022 170.149 18.8287C170.173 18.8553 170.191 18.8862 170.203 18.9199C170.322 19.2819 170.548 19.5992 170.852 19.8296C170.883 19.8462 170.912 19.8688 170.934 19.8962C170.957 19.9236 170.975 19.9552 170.985 19.9893C170.996 20.0234 171 20.0592 170.997 20.0948C170.993 20.1303 170.983 20.1649 170.967 20.1965C170.944 20.2404 170.909 20.2772 170.866 20.3029C170.824 20.3286 170.775 20.3421 170.726 20.3421Z" fill="white"/>
<path d="M167.239 32.5195C167.098 32.5196 166.958 32.4903 166.829 32.4337C166.707 32.3799 166.598 32.3023 166.507 32.2054C166.416 32.1085 166.345 31.9943 166.299 31.8695C166.254 31.7485 166.233 31.6196 166.239 31.4905C166.244 31.3615 166.275 31.2348 166.33 31.1179L170.369 22.4769C170.384 22.4445 170.405 22.4154 170.432 22.3912C170.458 22.3671 170.489 22.3484 170.522 22.3362C170.556 22.3239 170.592 22.3185 170.627 22.32C170.663 22.3216 170.698 22.3302 170.731 22.3453C170.796 22.3759 170.846 22.431 170.871 22.4987C170.895 22.5663 170.892 22.641 170.862 22.7062L166.823 31.3473C166.798 31.399 166.785 31.4551 166.782 31.5122C166.78 31.5693 166.789 31.6263 166.809 31.6799C166.83 31.7363 166.862 31.788 166.903 31.8319C166.945 31.8757 166.994 31.9109 167.049 31.9353C167.162 31.9846 167.288 31.9889 167.404 31.9474C167.519 31.9058 167.614 31.8215 167.669 31.7119L171.715 23.0469C171.745 22.9817 171.8 22.9312 171.868 22.9065C171.936 22.8818 172.01 22.8851 172.076 22.9154C172.108 22.9305 172.137 22.9518 172.161 22.9781C172.186 23.0045 172.204 23.0353 172.217 23.0689C172.229 23.1024 172.234 23.1381 172.233 23.1738C172.231 23.2094 172.223 23.2445 172.207 23.2768L168.161 31.9424C168.078 32.1159 167.947 32.2624 167.784 32.3645C167.62 32.4667 167.431 32.5205 167.239 32.5195Z" fill="white"/>
<path d="M156.218 87.6572C156.169 87.6573 156.121 87.6441 156.079 87.6191C156.033 87.5921 155.997 87.5524 155.974 87.5049C155.95 87.4574 155.942 87.4042 155.948 87.3518C155.975 87.1387 158.722 65.9273 165.508 53.5815C171.963 41.8426 181.267 35.5977 189.789 37.2776C192.75 37.8629 195.481 39.9541 197.479 43.1649C200.574 48.1398 201.546 55.1651 199.956 61.0628C197.524 70.0962 191.712 76.0026 182.682 78.6167C178.919 79.6955 175.103 80.5771 171.248 81.2579C169.718 81.5448 168.397 81.7921 167.287 82.0785C164.324 82.847 159.835 85.1219 156.377 87.605C156.331 87.6386 156.275 87.6569 156.218 87.6572ZM187.002 37.5498C179.489 37.5498 171.644 43.5486 165.985 53.8418C159.893 64.917 157.078 83.222 156.575 86.8018C160.002 84.4247 164.276 82.2981 167.153 81.5525C168.28 81.2612 169.61 81.0117 171.15 80.7231C174.987 80.0458 178.787 79.1682 182.532 78.0939C191.367 75.5369 197.056 69.7593 199.434 60.9204C200.986 55.1597 200.039 48.3039 197.019 43.4508C195.102 40.3688 192.498 38.3656 189.686 37.8101C188.802 37.6373 187.903 37.5516 187.002 37.5542V37.5498Z" fill="white"/>
<path d="M170.134 69.4305C170.106 69.4304 170.078 69.426 170.051 69.4174C170.011 69.4046 169.974 69.3826 169.944 69.3533C169.914 69.324 169.891 69.2881 169.877 69.2484L167.858 63.4796C167.845 63.4417 167.84 63.4013 167.844 63.3613C167.848 63.3213 167.862 63.2828 167.883 63.2486C167.904 63.2143 167.932 63.185 167.966 63.163C167.999 63.1409 168.037 63.1265 168.077 63.1209L170.897 62.7263L181.853 54.7657C181.882 54.7445 181.915 54.7293 181.949 54.7209C181.984 54.7125 182.02 54.711 182.056 54.7165C182.091 54.7221 182.125 54.7346 182.156 54.7533C182.186 54.7719 182.213 54.7965 182.234 54.8255C182.255 54.8543 182.27 54.8871 182.278 54.9219C182.287 54.9566 182.288 54.9927 182.283 55.0281C182.277 55.0634 182.265 55.0973 182.246 55.1278C182.227 55.1583 182.203 55.1849 182.174 55.2059L171.163 63.2062C171.127 63.2326 171.085 63.2496 171.04 63.2557L168.484 63.6133L170.275 68.7289L171.771 67.6708C171.808 67.6443 171.852 67.6276 171.897 67.6224L186.063 65.9838C186.134 65.9756 186.206 65.9961 186.263 66.0408C186.319 66.0856 186.356 66.1509 186.364 66.2224C186.372 66.294 186.352 66.3659 186.307 66.4223C186.262 66.4788 186.197 66.5152 186.125 66.5235L172.029 68.1539L170.294 69.3805C170.247 69.4137 170.191 69.4312 170.134 69.4305Z" fill="white"/>
<path d="M175.544 69.7479C175.182 69.7783 174.818 69.7224 174.482 69.5848C174.275 69.4403 174.101 69.0957 174.253 67.5626C174.261 67.4913 174.297 67.4258 174.352 67.3804C174.408 67.3349 174.479 67.3129 174.551 67.3192C174.586 67.3226 174.621 67.3329 174.652 67.3497C174.684 67.3665 174.712 67.3893 174.735 67.4168C174.757 67.4444 174.774 67.4761 174.785 67.5103C174.795 67.5445 174.799 67.5803 174.795 67.6159C174.667 68.924 174.808 69.1495 174.814 69.1588C175.165 69.3332 177.567 69.1213 177.848 68.8653C177.918 68.3106 177.918 67.7494 177.848 67.1947C177.845 67.1591 177.85 67.1233 177.861 67.0895C177.872 67.0556 177.89 67.0243 177.914 66.9973C177.937 66.9704 177.966 66.9483 177.998 66.9324C178.03 66.9164 178.064 66.907 178.1 66.9045C178.171 66.9014 178.241 66.9257 178.295 66.9725C178.349 67.0193 178.383 67.085 178.39 67.1561C178.504 68.7599 178.359 69.0441 178.312 69.137C178.228 69.3055 178.027 69.4213 177.638 69.5213C176.95 69.6708 176.248 69.7468 175.544 69.7479Z" fill="white"/>
<path d="M186.491 67.6306C186.455 67.6306 186.42 67.6233 186.387 67.6094C186.352 67.5949 186.321 67.5734 186.295 67.5462C186.268 67.5189 186.248 67.4866 186.235 67.4512L185.835 66.3458L181.211 53.5624C181.188 53.4999 181.189 53.4312 181.214 53.3694C181.239 53.3076 181.285 53.257 181.345 53.2271L183.596 52.0973C183.63 52.0802 183.667 52.0704 183.705 52.0685C183.743 52.0667 183.781 52.0727 183.817 52.0864C183.852 52.1001 183.884 52.1209 183.911 52.1477C183.938 52.1745 183.958 52.2065 183.972 52.2418L189.342 66.0458C189.367 66.11 189.367 66.1814 189.341 66.2453C189.315 66.3093 189.266 66.3611 189.204 66.3904L186.608 67.6045C186.572 67.6219 186.532 67.6309 186.491 67.6306ZM186.346 66.1605L186.646 66.986L188.74 66.0078L183.573 52.7179L181.804 53.6054L186.346 66.1605Z" fill="white"/>
<path d="M187.83 53.3103C187.791 53.3102 187.753 53.3019 187.718 53.2859C187.682 53.2699 187.651 53.2465 187.625 53.2173C187.602 53.1905 187.584 53.1592 187.572 53.1253C187.561 53.0915 187.556 53.0557 187.559 53.0201C187.561 52.9845 187.571 52.9497 187.587 52.9177C187.603 52.8857 187.625 52.8571 187.651 52.8337L192.371 48.7234C192.426 48.6761 192.497 48.6523 192.569 48.6572C192.641 48.6621 192.708 48.6953 192.755 48.7495C192.778 48.7765 192.796 48.8078 192.808 48.8416C192.819 48.8755 192.824 48.9113 192.821 48.9469C192.819 48.9825 192.809 49.0173 192.793 49.0493C192.777 49.0813 192.755 49.1098 192.728 49.1332L188.009 53.2434C187.959 53.2866 187.896 53.3104 187.83 53.3103Z" fill="white"/>
<path d="M191.554 55.9477C191.489 55.9475 191.427 55.9244 191.378 55.8826C191.329 55.8408 191.297 55.783 191.286 55.7194C191.28 55.6842 191.282 55.6482 191.29 55.6135C191.298 55.5787 191.313 55.5459 191.334 55.517C191.355 55.488 191.381 55.4634 191.412 55.4447C191.442 55.4259 191.476 55.4132 191.511 55.4075L195.754 54.7173C195.825 54.7058 195.898 54.7231 195.956 54.7651C196.015 54.8072 196.054 54.8707 196.066 54.9417C196.071 54.977 196.07 55.013 196.062 55.0477C196.054 55.0825 196.039 55.1152 196.018 55.1442C195.997 55.1732 195.971 55.1978 195.94 55.2165C195.91 55.2353 195.876 55.248 195.841 55.2537L191.598 55.9444C191.583 55.9466 191.569 55.9477 191.554 55.9477Z" fill="white"/>
<path d="M194.889 61.2448H192.17C192.098 61.2448 192.028 61.2162 191.977 61.1653C191.926 61.1143 191.898 61.0452 191.898 60.9731C191.898 60.901 191.926 60.8319 191.977 60.781C192.028 60.73 192.098 60.7014 192.17 60.7014H194.889C194.962 60.7014 195.031 60.73 195.082 60.781C195.133 60.8319 195.161 60.901 195.161 60.9731C195.161 61.0452 195.133 61.1143 195.082 61.1653C195.031 61.2162 194.962 61.2448 194.889 61.2448Z" fill="white"/>
<path d="M4.08281 65.9257C4.03423 65.9258 3.98651 65.9128 3.94463 65.8882C3.91338 65.8699 3.88616 65.8455 3.86448 65.8164C3.84281 65.7874 3.82717 65.7544 3.81847 65.7192L0.00799753 50.2598C-0.00269467 50.2167 -0.00268104 50.1716 0.00813033 50.1285C0.0189417 50.0854 0.0402282 50.0456 0.0700168 50.0126L7.69149 41.5889C7.7399 41.5355 7.80752 41.5035 7.87954 41.4999C7.95155 41.4964 8.02203 41.5215 8.07549 41.5698C8.12899 41.6181 8.16113 41.6857 8.1648 41.7576C8.16847 41.8296 8.14339 41.9 8.09508 41.9535L0.570421 50.2685L4.28029 65.3176L17.9479 61.616L20.8211 50.8011L11.4219 50.5837L9.7678 55.4706C9.75639 55.5044 9.7384 55.5357 9.71488 55.5626C9.69137 55.5894 9.66278 55.6114 9.63075 55.6273C9.59872 55.6431 9.56389 55.6525 9.52823 55.6549C9.49256 55.6573 9.45677 55.6526 9.42291 55.6412C9.38904 55.6298 9.35773 55.6118 9.33081 55.5883C9.30389 55.5649 9.28187 55.5363 9.26601 55.5043C9.25014 55.4723 9.24077 55.4375 9.23838 55.4019C9.23599 55.3662 9.24068 55.3305 9.25213 55.2966L10.971 50.2207C10.9874 50.1645 11.0224 50.1155 11.0704 50.0819C11.1184 50.0483 11.1764 50.0321 11.2348 50.0359L21.179 50.2663C21.2201 50.2673 21.2605 50.2776 21.2971 50.2965C21.3336 50.3153 21.3655 50.3422 21.3901 50.375C21.4149 50.4079 21.4319 50.446 21.4398 50.4864C21.4477 50.5267 21.4464 50.5684 21.4358 50.6082L18.4331 61.9057C18.4209 61.9517 18.3967 61.9937 18.3631 62.0275C18.3295 62.0613 18.2877 62.0856 18.2417 62.0981L4.153 65.9138C4.1302 65.9206 4.10661 65.9247 4.08281 65.9257Z" fill="white"/>
<path d="M18.6452 198.741C17.131 198.739 15.6793 198.138 14.6086 197.068C13.5378 195.998 12.9355 194.548 12.9336 193.035C12.9355 191.522 13.5378 190.072 14.6086 189.002C15.6793 187.932 17.131 187.33 18.6452 187.329C20.1595 187.33 21.6111 187.932 22.6818 189.002C23.7526 190.072 24.355 191.522 24.3568 193.035C24.355 194.548 23.7526 195.998 22.6818 197.068C21.6111 198.138 20.1595 198.739 18.6452 198.741ZM18.6452 187.872C17.2751 187.873 15.9615 188.418 14.9927 189.386C14.0239 190.354 13.479 191.666 13.4776 193.035C13.479 194.404 14.0239 195.716 14.9927 196.684C15.9615 197.652 17.2751 198.196 18.6452 198.198C20.0153 198.196 21.3289 197.652 22.2977 196.684C23.2665 195.716 23.8114 194.404 23.8129 193.035C23.8114 191.666 23.2665 190.354 22.2977 189.386C21.3289 188.418 20.0153 187.873 18.6452 187.872Z" fill="white"/>
<path d="M16.6114 279.772C16.5824 279.772 16.5536 279.767 16.526 279.758L3.96805 275.607C3.92159 275.591 3.8802 275.564 3.84812 275.527C3.81605 275.49 3.79452 275.445 3.78584 275.397C3.77712 275.349 3.78158 275.299 3.79872 275.253C3.81586 275.207 3.84507 275.167 3.88325 275.136L17.2201 264.407C17.261 264.374 17.3105 264.354 17.3628 264.349C17.415 264.343 17.4677 264.353 17.5144 264.377C17.5613 264.401 17.6002 264.438 17.6264 264.483C17.6527 264.529 17.6652 264.581 17.6624 264.633L16.8834 279.514C16.8812 279.556 16.8694 279.597 16.8488 279.633C16.8282 279.67 16.7995 279.701 16.7648 279.724C16.7196 279.755 16.6662 279.772 16.6114 279.772ZM4.61321 275.247L16.3585 279.13L17.0874 265.212L4.61321 275.247Z" fill="#2F84CF"/>
<path d="M171.771 249.827C174.475 249.827 176.667 247.637 176.667 244.936C176.667 242.234 174.475 240.044 171.771 240.044C169.067 240.044 166.875 242.234 166.875 244.936C166.875 247.637 169.067 249.827 171.771 249.827Z" fill="#2F84CF"/>
<path d="M273.028 294.49C272.99 294.491 272.953 294.483 272.919 294.469L263.501 290.475C263.464 290.46 263.431 290.436 263.404 290.406C263.378 290.377 263.358 290.341 263.346 290.303C263.335 290.265 263.332 290.224 263.338 290.185C263.344 290.145 263.358 290.107 263.381 290.074L274.502 273.459C274.536 273.409 274.585 273.372 274.642 273.353C274.699 273.334 274.761 273.335 274.818 273.354C274.875 273.374 274.923 273.413 274.956 273.463C274.989 273.513 275.004 273.573 274.999 273.633L273.297 294.241C273.293 294.284 273.279 294.325 273.257 294.361C273.234 294.398 273.203 294.428 273.166 294.451C273.124 294.476 273.077 294.49 273.028 294.49ZM264.018 290.103L272.787 293.821L274.373 274.634L264.018 290.103Z" fill="white"/>
<path d="M237.975 56.589L224.638 79.3688L233.645 83.0029L237.975 56.589Z" fill="#2F84CF"/>
<path d="M233.644 83.2736C233.609 83.2736 233.575 83.2669 233.542 83.254L224.536 79.6199C224.499 79.6054 224.467 79.5834 224.44 79.5553C224.413 79.5271 224.393 79.4936 224.38 79.4569C224.367 79.4199 224.363 79.3807 224.367 79.3419C224.371 79.3031 224.383 79.2655 224.403 79.2319L237.74 56.452C237.772 56.3974 237.822 56.3556 237.882 56.334C237.941 56.3124 238.006 56.3122 238.066 56.3336C238.126 56.3552 238.176 56.397 238.208 56.4518C238.24 56.5066 238.252 56.5709 238.242 56.6336L233.911 83.0459C233.905 83.0861 233.889 83.1243 233.866 83.1577C233.843 83.1911 233.812 83.2188 233.776 83.2388C233.736 83.2615 233.691 83.2734 233.644 83.2736ZM225.031 79.2335L233.431 82.6225L237.469 57.9895L225.031 79.2335Z" fill="white"/>
<path d="M269.413 30.2674C272.267 30.2674 274.58 27.9559 274.58 25.1045C274.58 22.2531 272.267 19.9416 269.413 19.9416C266.559 19.9416 264.245 22.2531 264.245 25.1045C264.245 27.9559 266.559 30.2674 269.413 30.2674Z" fill="#2F84CF"/>
</svg>
